# Kaiyun-2 / Lilac-3 exterior concept
# Proportions are inferred; not for manufacture.
mtllib kaiyun-2-concept.mtl
v 1.000000 0.000000 -0.080000
v 0.991445 0.130526 -0.080000
v 0.965926 0.258819 -0.080000
v 0.923880 0.382683 -0.080000
v 0.866025 0.500000 -0.080000
v 0.793353 0.608761 -0.080000
v 0.707107 0.707107 -0.080000
v 0.608761 0.793353 -0.080000
v 0.500000 0.866025 -0.080000
v 0.382683 0.923880 -0.080000
v 0.258819 0.965926 -0.080000
v 0.130526 0.991445 -0.080000
v 0.000000 1.000000 -0.080000
v -0.130526 0.991445 -0.080000
v -0.258819 0.965926 -0.080000
v -0.382683 0.923880 -0.080000
v -0.500000 0.866025 -0.080000
v -0.608761 0.793353 -0.080000
v -0.707107 0.707107 -0.080000
v -0.793353 0.608761 -0.080000
v -0.866025 0.500000 -0.080000
v -0.923880 0.382683 -0.080000
v -0.965926 0.258819 -0.080000
v -0.991445 0.130526 -0.080000
v -1.000000 0.000000 -0.080000
v -0.991445 -0.130526 -0.080000
v -0.965926 -0.258819 -0.080000
v -0.923880 -0.382683 -0.080000
v -0.866025 -0.500000 -0.080000
v -0.793353 -0.608761 -0.080000
v -0.707107 -0.707107 -0.080000
v -0.608761 -0.793353 -0.080000
v -0.500000 -0.866025 -0.080000
v -0.382683 -0.923880 -0.080000
v -0.258819 -0.965926 -0.080000
v -0.130526 -0.991445 -0.080000
v -0.000000 -1.000000 -0.080000
v 0.130526 -0.991445 -0.080000
v 0.258819 -0.965926 -0.080000
v 0.382683 -0.923880 -0.080000
v 0.500000 -0.866025 -0.080000
v 0.608761 -0.793353 -0.080000
v 0.707107 -0.707107 -0.080000
v 0.793353 -0.608761 -0.080000
v 0.866025 -0.500000 -0.080000
v 0.923880 -0.382683 -0.080000
v 0.965926 -0.258819 -0.080000
v 0.991445 -0.130526 -0.080000
v 1.000000 0.000000 0.080000
v 0.991445 0.130526 0.080000
v 0.965926 0.258819 0.080000
v 0.923880 0.382683 0.080000
v 0.866025 0.500000 0.080000
v 0.793353 0.608761 0.080000
v 0.707107 0.707107 0.080000
v 0.608761 0.793353 0.080000
v 0.500000 0.866025 0.080000
v 0.382683 0.923880 0.080000
v 0.258819 0.965926 0.080000
v 0.130526 0.991445 0.080000
v 0.000000 1.000000 0.080000
v -0.130526 0.991445 0.080000
v -0.258819 0.965926 0.080000
v -0.382683 0.923880 0.080000
v -0.500000 0.866025 0.080000
v -0.608761 0.793353 0.080000
v -0.707107 0.707107 0.080000
v -0.793353 0.608761 0.080000
v -0.866025 0.500000 0.080000
v -0.923880 0.382683 0.080000
v -0.965926 0.258819 0.080000
v -0.991445 0.130526 0.080000
v -1.000000 0.000000 0.080000
v -0.991445 -0.130526 0.080000
v -0.965926 -0.258819 0.080000
v -0.923880 -0.382683 0.080000
v -0.866025 -0.500000 0.080000
v -0.793353 -0.608761 0.080000
v -0.707107 -0.707107 0.080000
v -0.608761 -0.793353 0.080000
v -0.500000 -0.866025 0.080000
v -0.382683 -0.923880 0.080000
v -0.258819 -0.965926 0.080000
v -0.130526 -0.991445 0.080000
v -0.000000 -1.000000 0.080000
v 0.130526 -0.991445 0.080000
v 0.258819 -0.965926 0.080000
v 0.382683 -0.923880 0.080000
v 0.500000 -0.866025 0.080000
v 0.608761 -0.793353 0.080000
v 0.707107 -0.707107 0.080000
v 0.793353 -0.608761 0.080000
v 0.866025 -0.500000 0.080000
v 0.923880 -0.382683 0.080000
v 0.965926 -0.258819 0.080000
v 0.991445 -0.130526 0.080000
v 0.000000 0.000000 -0.080000
v 0.000000 0.000000 0.080000
v 1.065000 0.000000 0.020000
v 1.056406 0.000000 0.046450
v 1.033906 0.000000 0.062798
v 1.006094 0.000000 0.062798
v 0.983594 0.000000 0.046450
v 0.975000 0.000000 0.020000
v 0.983594 0.000000 -0.006450
v 1.006094 0.000000 -0.022798
v 1.033906 0.000000 -0.022798
v 1.056406 0.000000 -0.006450
v 1.059872 0.104388 0.020000
v 1.051319 0.103546 0.046450
v 1.028927 0.101340 0.062798
v 1.001250 0.098614 0.062798
v 0.978858 0.096409 0.046450
v 0.970305 0.095567 0.020000
v 0.978858 0.096409 -0.006450
v 1.001250 0.098614 -0.022798
v 1.028927 0.101340 -0.022798
v 1.051319 0.103546 -0.006450
v 1.044536 0.207771 0.020000
v 1.036107 0.206095 0.046450
v 1.014040 0.201705 0.062798
v 0.986762 0.196279 0.062798
v 0.964695 0.191890 0.046450
v 0.956266 0.190213 0.020000
v 0.964695 0.191890 -0.006450
v 0.986762 0.196279 -0.022798
v 1.014040 0.201705 -0.022798
v 1.036107 0.206095 -0.006450
v 1.019141 0.309153 0.020000
v 1.010917 0.306658 0.046450
v 0.989386 0.300127 0.062798
v 0.962772 0.292054 0.062798
v 0.941241 0.285522 0.046450
v 0.933017 0.283028 0.020000
v 0.941241 0.285522 -0.006450
v 0.962772 0.292054 -0.022798
v 0.989386 0.300127 -0.022798
v 1.010917 0.306658 -0.006450
v 0.983932 0.407558 0.020000
v 0.975992 0.404269 0.046450
v 0.955204 0.395659 0.062798
v 0.929510 0.385016 0.062798
v 0.908723 0.376405 0.046450
v 0.900783 0.373116 0.020000
v 0.908723 0.376405 -0.006450
v 0.929510 0.385016 -0.022798
v 0.955204 0.395659 -0.022798
v 0.975992 0.404269 -0.006450
v 0.939246 0.502038 0.020000
v 0.931667 0.497986 0.046450
v 0.911823 0.487380 0.062798
v 0.887296 0.474270 0.062798
v 0.867453 0.463663 0.046450
v 0.859873 0.459612 0.020000
v 0.867453 0.463663 -0.006450
v 0.887296 0.474270 -0.022798
v 0.911823 0.487380 -0.022798
v 0.931667 0.497986 -0.006450
v 0.885515 0.591682 0.020000
v 0.878369 0.586908 0.046450
v 0.859661 0.574407 0.062798
v 0.836537 0.558956 0.062798
v 0.817829 0.546456 0.046450
v 0.810683 0.541681 0.020000
v 0.817829 0.546456 -0.006450
v 0.836537 0.558956 -0.022798
v 0.859661 0.574407 -0.022798
v 0.878369 0.586908 -0.006450
v 0.823256 0.675629 0.020000
v 0.816613 0.670177 0.046450
v 0.799220 0.655903 0.062798
v 0.777721 0.638259 0.062798
v 0.760329 0.623986 0.046450
v 0.753685 0.618533 0.020000
v 0.760329 0.623986 -0.006450
v 0.777721 0.638259 -0.022798
v 0.799220 0.655903 -0.022798
v 0.816613 0.670177 -0.006450
v 0.753069 0.753069 0.020000
v 0.746992 0.746992 0.046450
v 0.731082 0.731082 0.062798
v 0.711416 0.711416 0.062798
v 0.695506 0.695506 0.046450
v 0.689429 0.689429 0.020000
v 0.695506 0.695506 -0.006450
v 0.711416 0.711416 -0.022798
v 0.731082 0.731082 -0.022798
v 0.746992 0.746992 -0.006450
v 0.675629 0.823256 0.020000
v 0.670177 0.816613 0.046450
v 0.655903 0.799220 0.062798
v 0.638259 0.777721 0.062798
v 0.623986 0.760329 0.046450
v 0.618533 0.753685 0.020000
v 0.623986 0.760329 -0.006450
v 0.638259 0.777721 -0.022798
v 0.655903 0.799220 -0.022798
v 0.670177 0.816613 -0.006450
v 0.591682 0.885515 0.020000
v 0.586908 0.878369 0.046450
v 0.574407 0.859661 0.062798
v 0.558956 0.836537 0.062798
v 0.546456 0.817829 0.046450
v 0.541681 0.810683 0.020000
v 0.546456 0.817829 -0.006450
v 0.558956 0.836537 -0.022798
v 0.574407 0.859661 -0.022798
v 0.586908 0.878369 -0.006450
v 0.502038 0.939246 0.020000
v 0.497986 0.931667 0.046450
v 0.487380 0.911823 0.062798
v 0.474270 0.887296 0.062798
v 0.463663 0.867453 0.046450
v 0.459612 0.859873 0.020000
v 0.463663 0.867453 -0.006450
v 0.474270 0.887296 -0.022798
v 0.487380 0.911823 -0.022798
v 0.497986 0.931667 -0.006450
v 0.407558 0.983932 0.020000
v 0.404269 0.975992 0.046450
v 0.395659 0.955204 0.062798
v 0.385016 0.929510 0.062798
v 0.376405 0.908723 0.046450
v 0.373116 0.900783 0.020000
v 0.376405 0.908723 -0.006450
v 0.385016 0.929510 -0.022798
v 0.395659 0.955204 -0.022798
v 0.404269 0.975992 -0.006450
v 0.309153 1.019141 0.020000
v 0.306658 1.010917 0.046450
v 0.300127 0.989386 0.062798
v 0.292054 0.962772 0.062798
v 0.285522 0.941241 0.046450
v 0.283028 0.933017 0.020000
v 0.285522 0.941241 -0.006450
v 0.292054 0.962772 -0.022798
v 0.300127 0.989386 -0.022798
v 0.306658 1.010917 -0.006450
v 0.207771 1.044536 0.020000
v 0.206095 1.036107 0.046450
v 0.201705 1.014040 0.062798
v 0.196279 0.986762 0.062798
v 0.191890 0.964695 0.046450
v 0.190213 0.956266 0.020000
v 0.191890 0.964695 -0.006450
v 0.196279 0.986762 -0.022798
v 0.201705 1.014040 -0.022798
v 0.206095 1.036107 -0.006450
v 0.104388 1.059872 0.020000
v 0.103546 1.051319 0.046450
v 0.101340 1.028927 0.062798
v 0.098614 1.001250 0.062798
v 0.096409 0.978858 0.046450
v 0.095567 0.970305 0.020000
v 0.096409 0.978858 -0.006450
v 0.098614 1.001250 -0.022798
v 0.101340 1.028927 -0.022798
v 0.103546 1.051319 -0.006450
v 0.000000 1.065000 0.020000
v 0.000000 1.056406 0.046450
v 0.000000 1.033906 0.062798
v 0.000000 1.006094 0.062798
v 0.000000 0.983594 0.046450
v 0.000000 0.975000 0.020000
v 0.000000 0.983594 -0.006450
v 0.000000 1.006094 -0.022798
v 0.000000 1.033906 -0.022798
v 0.000000 1.056406 -0.006450
v -0.104388 1.059872 0.020000
v -0.103546 1.051319 0.046450
v -0.101340 1.028927 0.062798
v -0.098614 1.001250 0.062798
v -0.096409 0.978858 0.046450
v -0.095567 0.970305 0.020000
v -0.096409 0.978858 -0.006450
v -0.098614 1.001250 -0.022798
v -0.101340 1.028927 -0.022798
v -0.103546 1.051319 -0.006450
v -0.207771 1.044536 0.020000
v -0.206095 1.036107 0.046450
v -0.201705 1.014040 0.062798
v -0.196279 0.986762 0.062798
v -0.191890 0.964695 0.046450
v -0.190213 0.956266 0.020000
v -0.191890 0.964695 -0.006450
v -0.196279 0.986762 -0.022798
v -0.201705 1.014040 -0.022798
v -0.206095 1.036107 -0.006450
v -0.309153 1.019141 0.020000
v -0.306658 1.010917 0.046450
v -0.300127 0.989386 0.062798
v -0.292054 0.962772 0.062798
v -0.285522 0.941241 0.046450
v -0.283028 0.933017 0.020000
v -0.285522 0.941241 -0.006450
v -0.292054 0.962772 -0.022798
v -0.300127 0.989386 -0.022798
v -0.306658 1.010917 -0.006450
v -0.407558 0.983932 0.020000
v -0.404269 0.975992 0.046450
v -0.395659 0.955204 0.062798
v -0.385016 0.929510 0.062798
v -0.376405 0.908723 0.046450
v -0.373116 0.900783 0.020000
v -0.376405 0.908723 -0.006450
v -0.385016 0.929510 -0.022798
v -0.395659 0.955204 -0.022798
v -0.404269 0.975992 -0.006450
v -0.502038 0.939246 0.020000
v -0.497986 0.931667 0.046450
v -0.487380 0.911823 0.062798
v -0.474270 0.887296 0.062798
v -0.463663 0.867453 0.046450
v -0.459612 0.859873 0.020000
v -0.463663 0.867453 -0.006450
v -0.474270 0.887296 -0.022798
v -0.487380 0.911823 -0.022798
v -0.497986 0.931667 -0.006450
v -0.591682 0.885515 0.020000
v -0.586908 0.878369 0.046450
v -0.574407 0.859661 0.062798
v -0.558956 0.836537 0.062798
v -0.546456 0.817829 0.046450
v -0.541681 0.810683 0.020000
v -0.546456 0.817829 -0.006450
v -0.558956 0.836537 -0.022798
v -0.574407 0.859661 -0.022798
v -0.586908 0.878369 -0.006450
v -0.675629 0.823256 0.020000
v -0.670177 0.816613 0.046450
v -0.655903 0.799220 0.062798
v -0.638259 0.777721 0.062798
v -0.623986 0.760329 0.046450
v -0.618533 0.753685 0.020000
v -0.623986 0.760329 -0.006450
v -0.638259 0.777721 -0.022798
v -0.655903 0.799220 -0.022798
v -0.670177 0.816613 -0.006450
v -0.753069 0.753069 0.020000
v -0.746992 0.746992 0.046450
v -0.731082 0.731082 0.062798
v -0.711416 0.711416 0.062798
v -0.695506 0.695506 0.046450
v -0.689429 0.689429 0.020000
v -0.695506 0.695506 -0.006450
v -0.711416 0.711416 -0.022798
v -0.731082 0.731082 -0.022798
v -0.746992 0.746992 -0.006450
v -0.823256 0.675629 0.020000
v -0.816613 0.670177 0.046450
v -0.799220 0.655903 0.062798
v -0.777721 0.638259 0.062798
v -0.760329 0.623986 0.046450
v -0.753685 0.618533 0.020000
v -0.760329 0.623986 -0.006450
v -0.777721 0.638259 -0.022798
v -0.799220 0.655903 -0.022798
v -0.816613 0.670177 -0.006450
v -0.885515 0.591682 0.020000
v -0.878369 0.586908 0.046450
v -0.859661 0.574407 0.062798
v -0.836537 0.558956 0.062798
v -0.817829 0.546456 0.046450
v -0.810683 0.541681 0.020000
v -0.817829 0.546456 -0.006450
v -0.836537 0.558956 -0.022798
v -0.859661 0.574407 -0.022798
v -0.878369 0.586908 -0.006450
v -0.939246 0.502038 0.020000
v -0.931667 0.497986 0.046450
v -0.911823 0.487380 0.062798
v -0.887296 0.474270 0.062798
v -0.867453 0.463663 0.046450
v -0.859873 0.459612 0.020000
v -0.867453 0.463663 -0.006450
v -0.887296 0.474270 -0.022798
v -0.911823 0.487380 -0.022798
v -0.931667 0.497986 -0.006450
v -0.983932 0.407558 0.020000
v -0.975992 0.404269 0.046450
v -0.955204 0.395659 0.062798
v -0.929510 0.385016 0.062798
v -0.908723 0.376405 0.046450
v -0.900783 0.373116 0.020000
v -0.908723 0.376405 -0.006450
v -0.929510 0.385016 -0.022798
v -0.955204 0.395659 -0.022798
v -0.975992 0.404269 -0.006450
v -1.019141 0.309153 0.020000
v -1.010917 0.306658 0.046450
v -0.989386 0.300127 0.062798
v -0.962772 0.292054 0.062798
v -0.941241 0.285522 0.046450
v -0.933017 0.283028 0.020000
v -0.941241 0.285522 -0.006450
v -0.962772 0.292054 -0.022798
v -0.989386 0.300127 -0.022798
v -1.010917 0.306658 -0.006450
v -1.044536 0.207771 0.020000
v -1.036107 0.206095 0.046450
v -1.014040 0.201705 0.062798
v -0.986762 0.196279 0.062798
v -0.964695 0.191890 0.046450
v -0.956266 0.190213 0.020000
v -0.964695 0.191890 -0.006450
v -0.986762 0.196279 -0.022798
v -1.014040 0.201705 -0.022798
v -1.036107 0.206095 -0.006450
v -1.059872 0.104388 0.020000
v -1.051319 0.103546 0.046450
v -1.028927 0.101340 0.062798
v -1.001250 0.098614 0.062798
v -0.978858 0.096409 0.046450
v -0.970305 0.095567 0.020000
v -0.978858 0.096409 -0.006450
v -1.001250 0.098614 -0.022798
v -1.028927 0.101340 -0.022798
v -1.051319 0.103546 -0.006450
v -1.065000 0.000000 0.020000
v -1.056406 0.000000 0.046450
v -1.033906 0.000000 0.062798
v -1.006094 0.000000 0.062798
v -0.983594 0.000000 0.046450
v -0.975000 0.000000 0.020000
v -0.983594 0.000000 -0.006450
v -1.006094 0.000000 -0.022798
v -1.033906 0.000000 -0.022798
v -1.056406 0.000000 -0.006450
v -1.059872 -0.104388 0.020000
v -1.051319 -0.103546 0.046450
v -1.028927 -0.101340 0.062798
v -1.001250 -0.098614 0.062798
v -0.978858 -0.096409 0.046450
v -0.970305 -0.095567 0.020000
v -0.978858 -0.096409 -0.006450
v -1.001250 -0.098614 -0.022798
v -1.028927 -0.101340 -0.022798
v -1.051319 -0.103546 -0.006450
v -1.044536 -0.207771 0.020000
v -1.036107 -0.206095 0.046450
v -1.014040 -0.201705 0.062798
v -0.986762 -0.196279 0.062798
v -0.964695 -0.191890 0.046450
v -0.956266 -0.190213 0.020000
v -0.964695 -0.191890 -0.006450
v -0.986762 -0.196279 -0.022798
v -1.014040 -0.201705 -0.022798
v -1.036107 -0.206095 -0.006450
v -1.019141 -0.309153 0.020000
v -1.010917 -0.306658 0.046450
v -0.989386 -0.300127 0.062798
v -0.962772 -0.292054 0.062798
v -0.941241 -0.285522 0.046450
v -0.933017 -0.283028 0.020000
v -0.941241 -0.285522 -0.006450
v -0.962772 -0.292054 -0.022798
v -0.989386 -0.300127 -0.022798
v -1.010917 -0.306658 -0.006450
v -0.983932 -0.407558 0.020000
v -0.975992 -0.404269 0.046450
v -0.955204 -0.395659 0.062798
v -0.929510 -0.385016 0.062798
v -0.908723 -0.376405 0.046450
v -0.900783 -0.373116 0.020000
v -0.908723 -0.376405 -0.006450
v -0.929510 -0.385016 -0.022798
v -0.955204 -0.395659 -0.022798
v -0.975992 -0.404269 -0.006450
v -0.939246 -0.502038 0.020000
v -0.931667 -0.497986 0.046450
v -0.911823 -0.487380 0.062798
v -0.887296 -0.474270 0.062798
v -0.867453 -0.463663 0.046450
v -0.859873 -0.459612 0.020000
v -0.867453 -0.463663 -0.006450
v -0.887296 -0.474270 -0.022798
v -0.911823 -0.487380 -0.022798
v -0.931667 -0.497986 -0.006450
v -0.885515 -0.591682 0.020000
v -0.878369 -0.586908 0.046450
v -0.859661 -0.574407 0.062798
v -0.836537 -0.558956 0.062798
v -0.817829 -0.546456 0.046450
v -0.810683 -0.541681 0.020000
v -0.817829 -0.546456 -0.006450
v -0.836537 -0.558956 -0.022798
v -0.859661 -0.574407 -0.022798
v -0.878369 -0.586908 -0.006450
v -0.823256 -0.675629 0.020000
v -0.816613 -0.670177 0.046450
v -0.799220 -0.655903 0.062798
v -0.777721 -0.638259 0.062798
v -0.760329 -0.623986 0.046450
v -0.753685 -0.618533 0.020000
v -0.760329 -0.623986 -0.006450
v -0.777721 -0.638259 -0.022798
v -0.799220 -0.655903 -0.022798
v -0.816613 -0.670177 -0.006450
v -0.753069 -0.753069 0.020000
v -0.746992 -0.746992 0.046450
v -0.731082 -0.731082 0.062798
v -0.711416 -0.711416 0.062798
v -0.695506 -0.695506 0.046450
v -0.689429 -0.689429 0.020000
v -0.695506 -0.695506 -0.006450
v -0.711416 -0.711416 -0.022798
v -0.731082 -0.731082 -0.022798
v -0.746992 -0.746992 -0.006450
v -0.675629 -0.823256 0.020000
v -0.670177 -0.816613 0.046450
v -0.655903 -0.799220 0.062798
v -0.638259 -0.777721 0.062798
v -0.623986 -0.760329 0.046450
v -0.618533 -0.753685 0.020000
v -0.623986 -0.760329 -0.006450
v -0.638259 -0.777721 -0.022798
v -0.655903 -0.799220 -0.022798
v -0.670177 -0.816613 -0.006450
v -0.591682 -0.885515 0.020000
v -0.586908 -0.878369 0.046450
v -0.574407 -0.859661 0.062798
v -0.558956 -0.836537 0.062798
v -0.546456 -0.817829 0.046450
v -0.541681 -0.810683 0.020000
v -0.546456 -0.817829 -0.006450
v -0.558956 -0.836537 -0.022798
v -0.574407 -0.859661 -0.022798
v -0.586908 -0.878369 -0.006450
v -0.502038 -0.939246 0.020000
v -0.497986 -0.931667 0.046450
v -0.487380 -0.911823 0.062798
v -0.474270 -0.887296 0.062798
v -0.463663 -0.867453 0.046450
v -0.459612 -0.859873 0.020000
v -0.463663 -0.867453 -0.006450
v -0.474270 -0.887296 -0.022798
v -0.487380 -0.911823 -0.022798
v -0.497986 -0.931667 -0.006450
v -0.407558 -0.983932 0.020000
v -0.404269 -0.975992 0.046450
v -0.395659 -0.955204 0.062798
v -0.385016 -0.929510 0.062798
v -0.376405 -0.908723 0.046450
v -0.373116 -0.900783 0.020000
v -0.376405 -0.908723 -0.006450
v -0.385016 -0.929510 -0.022798
v -0.395659 -0.955204 -0.022798
v -0.404269 -0.975992 -0.006450
v -0.309153 -1.019141 0.020000
v -0.306658 -1.010917 0.046450
v -0.300127 -0.989386 0.062798
v -0.292054 -0.962772 0.062798
v -0.285522 -0.941241 0.046450
v -0.283028 -0.933017 0.020000
v -0.285522 -0.941241 -0.006450
v -0.292054 -0.962772 -0.022798
v -0.300127 -0.989386 -0.022798
v -0.306658 -1.010917 -0.006450
v -0.207771 -1.044536 0.020000
v -0.206095 -1.036107 0.046450
v -0.201705 -1.014040 0.062798
v -0.196279 -0.986762 0.062798
v -0.191890 -0.964695 0.046450
v -0.190213 -0.956266 0.020000
v -0.191890 -0.964695 -0.006450
v -0.196279 -0.986762 -0.022798
v -0.201705 -1.014040 -0.022798
v -0.206095 -1.036107 -0.006450
v -0.104388 -1.059872 0.020000
v -0.103546 -1.051319 0.046450
v -0.101340 -1.028927 0.062798
v -0.098614 -1.001250 0.062798
v -0.096409 -0.978858 0.046450
v -0.095567 -0.970305 0.020000
v -0.096409 -0.978858 -0.006450
v -0.098614 -1.001250 -0.022798
v -0.101340 -1.028927 -0.022798
v -0.103546 -1.051319 -0.006450
v -0.000000 -1.065000 0.020000
v -0.000000 -1.056406 0.046450
v -0.000000 -1.033906 0.062798
v -0.000000 -1.006094 0.062798
v -0.000000 -0.983594 0.046450
v -0.000000 -0.975000 0.020000
v -0.000000 -0.983594 -0.006450
v -0.000000 -1.006094 -0.022798
v -0.000000 -1.033906 -0.022798
v -0.000000 -1.056406 -0.006450
v 0.104388 -1.059872 0.020000
v 0.103546 -1.051319 0.046450
v 0.101340 -1.028927 0.062798
v 0.098614 -1.001250 0.062798
v 0.096409 -0.978858 0.046450
v 0.095567 -0.970305 0.020000
v 0.096409 -0.978858 -0.006450
v 0.098614 -1.001250 -0.022798
v 0.101340 -1.028927 -0.022798
v 0.103546 -1.051319 -0.006450
v 0.207771 -1.044536 0.020000
v 0.206095 -1.036107 0.046450
v 0.201705 -1.014040 0.062798
v 0.196279 -0.986762 0.062798
v 0.191890 -0.964695 0.046450
v 0.190213 -0.956266 0.020000
v 0.191890 -0.964695 -0.006450
v 0.196279 -0.986762 -0.022798
v 0.201705 -1.014040 -0.022798
v 0.206095 -1.036107 -0.006450
v 0.309153 -1.019141 0.020000
v 0.306658 -1.010917 0.046450
v 0.300127 -0.989386 0.062798
v 0.292054 -0.962772 0.062798
v 0.285522 -0.941241 0.046450
v 0.283028 -0.933017 0.020000
v 0.285522 -0.941241 -0.006450
v 0.292054 -0.962772 -0.022798
v 0.300127 -0.989386 -0.022798
v 0.306658 -1.010917 -0.006450
v 0.407558 -0.983932 0.020000
v 0.404269 -0.975992 0.046450
v 0.395659 -0.955204 0.062798
v 0.385016 -0.929510 0.062798
v 0.376405 -0.908723 0.046450
v 0.373116 -0.900783 0.020000
v 0.376405 -0.908723 -0.006450
v 0.385016 -0.929510 -0.022798
v 0.395659 -0.955204 -0.022798
v 0.404269 -0.975992 -0.006450
v 0.502038 -0.939246 0.020000
v 0.497986 -0.931667 0.046450
v 0.487380 -0.911823 0.062798
v 0.474270 -0.887296 0.062798
v 0.463663 -0.867453 0.046450
v 0.459612 -0.859873 0.020000
v 0.463663 -0.867453 -0.006450
v 0.474270 -0.887296 -0.022798
v 0.487380 -0.911823 -0.022798
v 0.497986 -0.931667 -0.006450
v 0.591682 -0.885515 0.020000
v 0.586908 -0.878369 0.046450
v 0.574407 -0.859661 0.062798
v 0.558956 -0.836537 0.062798
v 0.546456 -0.817829 0.046450
v 0.541681 -0.810683 0.020000
v 0.546456 -0.817829 -0.006450
v 0.558956 -0.836537 -0.022798
v 0.574407 -0.859661 -0.022798
v 0.586908 -0.878369 -0.006450
v 0.675629 -0.823256 0.020000
v 0.670177 -0.816613 0.046450
v 0.655903 -0.799220 0.062798
v 0.638259 -0.777721 0.062798
v 0.623986 -0.760329 0.046450
v 0.618533 -0.753685 0.020000
v 0.623986 -0.760329 -0.006450
v 0.638259 -0.777721 -0.022798
v 0.655903 -0.799220 -0.022798
v 0.670177 -0.816613 -0.006450
v 0.753069 -0.753069 0.020000
v 0.746992 -0.746992 0.046450
v 0.731082 -0.731082 0.062798
v 0.711416 -0.711416 0.062798
v 0.695506 -0.695506 0.046450
v 0.689429 -0.689429 0.020000
v 0.695506 -0.695506 -0.006450
v 0.711416 -0.711416 -0.022798
v 0.731082 -0.731082 -0.022798
v 0.746992 -0.746992 -0.006450
v 0.823256 -0.675629 0.020000
v 0.816613 -0.670177 0.046450
v 0.799220 -0.655903 0.062798
v 0.777721 -0.638259 0.062798
v 0.760329 -0.623986 0.046450
v 0.753685 -0.618533 0.020000
v 0.760329 -0.623986 -0.006450
v 0.777721 -0.638259 -0.022798
v 0.799220 -0.655903 -0.022798
v 0.816613 -0.670177 -0.006450
v 0.885515 -0.591682 0.020000
v 0.878369 -0.586908 0.046450
v 0.859661 -0.574407 0.062798
v 0.836537 -0.558956 0.062798
v 0.817829 -0.546456 0.046450
v 0.810683 -0.541681 0.020000
v 0.817829 -0.546456 -0.006450
v 0.836537 -0.558956 -0.022798
v 0.859661 -0.574407 -0.022798
v 0.878369 -0.586908 -0.006450
v 0.939246 -0.502038 0.020000
v 0.931667 -0.497986 0.046450
v 0.911823 -0.487380 0.062798
v 0.887296 -0.474270 0.062798
v 0.867453 -0.463663 0.046450
v 0.859873 -0.459612 0.020000
v 0.867453 -0.463663 -0.006450
v 0.887296 -0.474270 -0.022798
v 0.911823 -0.487380 -0.022798
v 0.931667 -0.497986 -0.006450
v 0.983932 -0.407558 0.020000
v 0.975992 -0.404269 0.046450
v 0.955204 -0.395659 0.062798
v 0.929510 -0.385016 0.062798
v 0.908723 -0.376405 0.046450
v 0.900783 -0.373116 0.020000
v 0.908723 -0.376405 -0.006450
v 0.929510 -0.385016 -0.022798
v 0.955204 -0.395659 -0.022798
v 0.975992 -0.404269 -0.006450
v 1.019141 -0.309153 0.020000
v 1.010917 -0.306658 0.046450
v 0.989386 -0.300127 0.062798
v 0.962772 -0.292054 0.062798
v 0.941241 -0.285522 0.046450
v 0.933017 -0.283028 0.020000
v 0.941241 -0.285522 -0.006450
v 0.962772 -0.292054 -0.022798
v 0.989386 -0.300127 -0.022798
v 1.010917 -0.306658 -0.006450
v 1.044536 -0.207771 0.020000
v 1.036107 -0.206095 0.046450
v 1.014040 -0.201705 0.062798
v 0.986762 -0.196279 0.062798
v 0.964695 -0.191890 0.046450
v 0.956266 -0.190213 0.020000
v 0.964695 -0.191890 -0.006450
v 0.986762 -0.196279 -0.022798
v 1.014040 -0.201705 -0.022798
v 1.036107 -0.206095 -0.006450
v 1.059872 -0.104388 0.020000
v 1.051319 -0.103546 0.046450
v 1.028927 -0.101340 0.062798
v 1.001250 -0.098614 0.062798
v 0.978858 -0.096409 0.046450
v 0.970305 -0.095567 0.020000
v 0.978858 -0.096409 -0.006450
v 1.001250 -0.098614 -0.022798
v 1.028927 -0.101340 -0.022798
v 1.051319 -0.103546 -0.006450
v -0.718134 -0.479709 0.085000
v -0.600291 -0.448134 0.085000
v -0.631866 -0.330291 0.085000
v -0.749709 -0.361866 0.085000
v -0.718134 -0.479709 0.099000
v -0.600291 -0.448134 0.099000
v -0.631866 -0.330291 0.099000
v -0.749709 -0.361866 0.099000
v -0.718134 -0.344709 0.085000
v -0.600291 -0.313134 0.085000
v -0.631866 -0.195291 0.085000
v -0.749709 -0.226866 0.085000
v -0.718134 -0.344709 0.099000
v -0.600291 -0.313134 0.099000
v -0.631866 -0.195291 0.099000
v -0.749709 -0.226866 0.099000
v -0.718134 -0.209709 0.085000
v -0.600291 -0.178134 0.085000
v -0.631866 -0.060291 0.085000
v -0.749709 -0.091866 0.085000
v -0.718134 -0.209709 0.099000
v -0.600291 -0.178134 0.099000
v -0.631866 -0.060291 0.099000
v -0.749709 -0.091866 0.099000
v -0.718134 -0.074709 0.085000
v -0.600291 -0.043134 0.085000
v -0.631866 0.074709 0.085000
v -0.749709 0.043134 0.085000
v -0.718134 -0.074709 0.099000
v -0.600291 -0.043134 0.099000
v -0.631866 0.074709 0.099000
v -0.749709 0.043134 0.099000
v -0.718134 0.060291 0.085000
v -0.600291 0.091866 0.085000
v -0.631866 0.209709 0.085000
v -0.749709 0.178134 0.085000
v -0.718134 0.060291 0.099000
v -0.600291 0.091866 0.099000
v -0.631866 0.209709 0.099000
v -0.749709 0.178134 0.099000
v -0.718134 0.195291 0.085000
v -0.600291 0.226866 0.085000
v -0.631866 0.344709 0.085000
v -0.749709 0.313134 0.085000
v -0.718134 0.195291 0.099000
v -0.600291 0.226866 0.099000
v -0.631866 0.344709 0.099000
v -0.749709 0.313134 0.099000
v -0.718134 0.330291 0.085000
v -0.600291 0.361866 0.085000
v -0.631866 0.479709 0.085000
v -0.749709 0.448134 0.085000
v -0.718134 0.330291 0.099000
v -0.600291 0.361866 0.099000
v -0.631866 0.479709 0.099000
v -0.749709 0.448134 0.099000
v -0.583134 -0.614709 0.085000
v -0.465291 -0.583134 0.085000
v -0.496866 -0.465291 0.085000
v -0.614709 -0.496866 0.085000
v -0.583134 -0.614709 0.099000
v -0.465291 -0.583134 0.099000
v -0.496866 -0.465291 0.099000
v -0.614709 -0.496866 0.099000
v -0.583134 -0.479709 0.085000
v -0.465291 -0.448134 0.085000
v -0.496866 -0.330291 0.085000
v -0.614709 -0.361866 0.085000
v -0.583134 -0.479709 0.099000
v -0.465291 -0.448134 0.099000
v -0.496866 -0.330291 0.099000
v -0.614709 -0.361866 0.099000
v -0.583134 -0.344709 0.085000
v -0.465291 -0.313134 0.085000
v -0.496866 -0.195291 0.085000
v -0.614709 -0.226866 0.085000
v -0.583134 -0.344709 0.099000
v -0.465291 -0.313134 0.099000
v -0.496866 -0.195291 0.099000
v -0.614709 -0.226866 0.099000
v -0.583134 -0.209709 0.085000
v -0.465291 -0.178134 0.085000
v -0.496866 -0.060291 0.085000
v -0.614709 -0.091866 0.085000
v -0.583134 -0.209709 0.099000
v -0.465291 -0.178134 0.099000
v -0.496866 -0.060291 0.099000
v -0.614709 -0.091866 0.099000
v -0.583134 -0.074709 0.085000
v -0.465291 -0.043134 0.085000
v -0.496866 0.074709 0.085000
v -0.614709 0.043134 0.085000
v -0.583134 -0.074709 0.099000
v -0.465291 -0.043134 0.099000
v -0.496866 0.074709 0.099000
v -0.614709 0.043134 0.099000
v -0.583134 0.060291 0.085000
v -0.465291 0.091866 0.085000
v -0.496866 0.209709 0.085000
v -0.614709 0.178134 0.085000
v -0.583134 0.060291 0.099000
v -0.465291 0.091866 0.099000
v -0.496866 0.209709 0.099000
v -0.614709 0.178134 0.099000
v -0.583134 0.195291 0.085000
v -0.465291 0.226866 0.085000
v -0.496866 0.344709 0.085000
v -0.614709 0.313134 0.085000
v -0.583134 0.195291 0.099000
v -0.465291 0.226866 0.099000
v -0.496866 0.344709 0.099000
v -0.614709 0.313134 0.099000
v -0.583134 0.330291 0.085000
v -0.465291 0.361866 0.085000
v -0.496866 0.479709 0.085000
v -0.614709 0.448134 0.085000
v -0.583134 0.330291 0.099000
v -0.465291 0.361866 0.099000
v -0.496866 0.479709 0.099000
v -0.614709 0.448134 0.099000
v -0.583134 0.465291 0.085000
v -0.465291 0.496866 0.085000
v -0.496866 0.614709 0.085000
v -0.614709 0.583134 0.085000
v -0.583134 0.465291 0.099000
v -0.465291 0.496866 0.099000
v -0.496866 0.614709 0.099000
v -0.614709 0.583134 0.099000
v -0.448134 -0.749709 0.085000
v -0.330291 -0.718134 0.085000
v -0.361866 -0.600291 0.085000
v -0.479709 -0.631866 0.085000
v -0.448134 -0.749709 0.099000
v -0.330291 -0.718134 0.099000
v -0.361866 -0.600291 0.099000
v -0.479709 -0.631866 0.099000
v -0.448134 -0.614709 0.085000
v -0.330291 -0.583134 0.085000
v -0.361866 -0.465291 0.085000
v -0.479709 -0.496866 0.085000
v -0.448134 -0.614709 0.099000
v -0.330291 -0.583134 0.099000
v -0.361866 -0.465291 0.099000
v -0.479709 -0.496866 0.099000
v -0.448134 -0.479709 0.085000
v -0.330291 -0.448134 0.085000
v -0.361866 -0.330291 0.085000
v -0.479709 -0.361866 0.085000
v -0.448134 -0.479709 0.099000
v -0.330291 -0.448134 0.099000
v -0.361866 -0.330291 0.099000
v -0.479709 -0.361866 0.099000
v -0.448134 -0.344709 0.085000
v -0.330291 -0.313134 0.085000
v -0.361866 -0.195291 0.085000
v -0.479709 -0.226866 0.085000
v -0.448134 -0.344709 0.099000
v -0.330291 -0.313134 0.099000
v -0.361866 -0.195291 0.099000
v -0.479709 -0.226866 0.099000
v -0.448134 -0.209709 0.085000
v -0.330291 -0.178134 0.085000
v -0.361866 -0.060291 0.085000
v -0.479709 -0.091866 0.085000
v -0.448134 -0.209709 0.099000
v -0.330291 -0.178134 0.099000
v -0.361866 -0.060291 0.099000
v -0.479709 -0.091866 0.099000
v -0.448134 -0.074709 0.085000
v -0.330291 -0.043134 0.085000
v -0.361866 0.074709 0.085000
v -0.479709 0.043134 0.085000
v -0.448134 -0.074709 0.099000
v -0.330291 -0.043134 0.099000
v -0.361866 0.074709 0.099000
v -0.479709 0.043134 0.099000
v -0.448134 0.060291 0.085000
v -0.330291 0.091866 0.085000
v -0.361866 0.209709 0.085000
v -0.479709 0.178134 0.085000
v -0.448134 0.060291 0.099000
v -0.330291 0.091866 0.099000
v -0.361866 0.209709 0.099000
v -0.479709 0.178134 0.099000
v -0.448134 0.195291 0.085000
v -0.330291 0.226866 0.085000
v -0.361866 0.344709 0.085000
v -0.479709 0.313134 0.085000
v -0.448134 0.195291 0.099000
v -0.330291 0.226866 0.099000
v -0.361866 0.344709 0.099000
v -0.479709 0.313134 0.099000
v -0.448134 0.330291 0.085000
v -0.330291 0.361866 0.085000
v -0.361866 0.479709 0.085000
v -0.479709 0.448134 0.085000
v -0.448134 0.330291 0.099000
v -0.330291 0.361866 0.099000
v -0.361866 0.479709 0.099000
v -0.479709 0.448134 0.099000
v -0.448134 0.465291 0.085000
v -0.330291 0.496866 0.085000
v -0.361866 0.614709 0.085000
v -0.479709 0.583134 0.085000
v -0.448134 0.465291 0.099000
v -0.330291 0.496866 0.099000
v -0.361866 0.614709 0.099000
v -0.479709 0.583134 0.099000
v -0.448134 0.600291 0.085000
v -0.330291 0.631866 0.085000
v -0.361866 0.749709 0.085000
v -0.479709 0.718134 0.085000
v -0.448134 0.600291 0.099000
v -0.330291 0.631866 0.099000
v -0.361866 0.749709 0.099000
v -0.479709 0.718134 0.099000
v -0.313134 -0.749709 0.085000
v -0.195291 -0.718134 0.085000
v -0.226866 -0.600291 0.085000
v -0.344709 -0.631866 0.085000
v -0.313134 -0.749709 0.099000
v -0.195291 -0.718134 0.099000
v -0.226866 -0.600291 0.099000
v -0.344709 -0.631866 0.099000
v -0.313134 -0.614709 0.085000
v -0.195291 -0.583134 0.085000
v -0.226866 -0.465291 0.085000
v -0.344709 -0.496866 0.085000
v -0.313134 -0.614709 0.099000
v -0.195291 -0.583134 0.099000
v -0.226866 -0.465291 0.099000
v -0.344709 -0.496866 0.099000
v -0.313134 -0.479709 0.085000
v -0.195291 -0.448134 0.085000
v -0.226866 -0.330291 0.085000
v -0.344709 -0.361866 0.085000
v -0.313134 -0.479709 0.099000
v -0.195291 -0.448134 0.099000
v -0.226866 -0.330291 0.099000
v -0.344709 -0.361866 0.099000
v -0.313134 -0.344709 0.085000
v -0.195291 -0.313134 0.085000
v -0.226866 -0.195291 0.085000
v -0.344709 -0.226866 0.085000
v -0.313134 -0.344709 0.099000
v -0.195291 -0.313134 0.099000
v -0.226866 -0.195291 0.099000
v -0.344709 -0.226866 0.099000
v -0.313134 -0.209709 0.085000
v -0.195291 -0.178134 0.085000
v -0.226866 -0.060291 0.085000
v -0.344709 -0.091866 0.085000
v -0.313134 -0.209709 0.099000
v -0.195291 -0.178134 0.099000
v -0.226866 -0.060291 0.099000
v -0.344709 -0.091866 0.099000
v -0.313134 -0.074709 0.085000
v -0.195291 -0.043134 0.085000
v -0.226866 0.074709 0.085000
v -0.344709 0.043134 0.085000
v -0.313134 -0.074709 0.099000
v -0.195291 -0.043134 0.099000
v -0.226866 0.074709 0.099000
v -0.344709 0.043134 0.099000
v -0.313134 0.060291 0.085000
v -0.195291 0.091866 0.085000
v -0.226866 0.209709 0.085000
v -0.344709 0.178134 0.085000
v -0.313134 0.060291 0.099000
v -0.195291 0.091866 0.099000
v -0.226866 0.209709 0.099000
v -0.344709 0.178134 0.099000
v -0.313134 0.195291 0.085000
v -0.195291 0.226866 0.085000
v -0.226866 0.344709 0.085000
v -0.344709 0.313134 0.085000
v -0.313134 0.195291 0.099000
v -0.195291 0.226866 0.099000
v -0.226866 0.344709 0.099000
v -0.344709 0.313134 0.099000
v -0.313134 0.330291 0.085000
v -0.195291 0.361866 0.085000
v -0.226866 0.479709 0.085000
v -0.344709 0.448134 0.085000
v -0.313134 0.330291 0.099000
v -0.195291 0.361866 0.099000
v -0.226866 0.479709 0.099000
v -0.344709 0.448134 0.099000
v -0.313134 0.465291 0.085000
v -0.195291 0.496866 0.085000
v -0.226866 0.614709 0.085000
v -0.344709 0.583134 0.085000
v -0.313134 0.465291 0.099000
v -0.195291 0.496866 0.099000
v -0.226866 0.614709 0.099000
v -0.344709 0.583134 0.099000
v -0.313134 0.600291 0.085000
v -0.195291 0.631866 0.085000
v -0.226866 0.749709 0.085000
v -0.344709 0.718134 0.085000
v -0.313134 0.600291 0.099000
v -0.195291 0.631866 0.099000
v -0.226866 0.749709 0.099000
v -0.344709 0.718134 0.099000
v -0.178134 -0.749709 0.085000
v -0.060291 -0.718134 0.085000
v -0.091866 -0.600291 0.085000
v -0.209709 -0.631866 0.085000
v -0.178134 -0.749709 0.099000
v -0.060291 -0.718134 0.099000
v -0.091866 -0.600291 0.099000
v -0.209709 -0.631866 0.099000
v -0.178134 -0.614709 0.085000
v -0.060291 -0.583134 0.085000
v -0.091866 -0.465291 0.085000
v -0.209709 -0.496866 0.085000
v -0.178134 -0.614709 0.099000
v -0.060291 -0.583134 0.099000
v -0.091866 -0.465291 0.099000
v -0.209709 -0.496866 0.099000
v -0.178134 -0.479709 0.085000
v -0.060291 -0.448134 0.085000
v -0.091866 -0.330291 0.085000
v -0.209709 -0.361866 0.085000
v -0.178134 -0.479709 0.099000
v -0.060291 -0.448134 0.099000
v -0.091866 -0.330291 0.099000
v -0.209709 -0.361866 0.099000
v -0.178134 -0.344709 0.085000
v -0.060291 -0.313134 0.085000
v -0.091866 -0.195291 0.085000
v -0.209709 -0.226866 0.085000
v -0.178134 -0.344709 0.099000
v -0.060291 -0.313134 0.099000
v -0.091866 -0.195291 0.099000
v -0.209709 -0.226866 0.099000
v -0.178134 -0.209709 0.085000
v -0.060291 -0.178134 0.085000
v -0.091866 -0.060291 0.085000
v -0.209709 -0.091866 0.085000
v -0.178134 -0.209709 0.099000
v -0.060291 -0.178134 0.099000
v -0.091866 -0.060291 0.099000
v -0.209709 -0.091866 0.099000
v -0.178134 -0.074709 0.085000
v -0.060291 -0.043134 0.085000
v -0.091866 0.074709 0.085000
v -0.209709 0.043134 0.085000
v -0.178134 -0.074709 0.099000
v -0.060291 -0.043134 0.099000
v -0.091866 0.074709 0.099000
v -0.209709 0.043134 0.099000
v -0.178134 0.060291 0.085000
v -0.060291 0.091866 0.085000
v -0.091866 0.209709 0.085000
v -0.209709 0.178134 0.085000
v -0.178134 0.060291 0.099000
v -0.060291 0.091866 0.099000
v -0.091866 0.209709 0.099000
v -0.209709 0.178134 0.099000
v -0.178134 0.195291 0.085000
v -0.060291 0.226866 0.085000
v -0.091866 0.344709 0.085000
v -0.209709 0.313134 0.085000
v -0.178134 0.195291 0.099000
v -0.060291 0.226866 0.099000
v -0.091866 0.344709 0.099000
v -0.209709 0.313134 0.099000
v -0.178134 0.330291 0.085000
v -0.060291 0.361866 0.085000
v -0.091866 0.479709 0.085000
v -0.209709 0.448134 0.085000
v -0.178134 0.330291 0.099000
v -0.060291 0.361866 0.099000
v -0.091866 0.479709 0.099000
v -0.209709 0.448134 0.099000
v -0.178134 0.465291 0.085000
v -0.060291 0.496866 0.085000
v -0.091866 0.614709 0.085000
v -0.209709 0.583134 0.085000
v -0.178134 0.465291 0.099000
v -0.060291 0.496866 0.099000
v -0.091866 0.614709 0.099000
v -0.209709 0.583134 0.099000
v -0.178134 0.600291 0.085000
v -0.060291 0.631866 0.085000
v -0.091866 0.749709 0.085000
v -0.209709 0.718134 0.085000
v -0.178134 0.600291 0.099000
v -0.060291 0.631866 0.099000
v -0.091866 0.749709 0.099000
v -0.209709 0.718134 0.099000
v -0.043134 -0.749709 0.085000
v 0.074709 -0.718134 0.085000
v 0.043134 -0.600291 0.085000
v -0.074709 -0.631866 0.085000
v -0.043134 -0.749709 0.099000
v 0.074709 -0.718134 0.099000
v 0.043134 -0.600291 0.099000
v -0.074709 -0.631866 0.099000
v -0.043134 -0.614709 0.085000
v 0.074709 -0.583134 0.085000
v 0.043134 -0.465291 0.085000
v -0.074709 -0.496866 0.085000
v -0.043134 -0.614709 0.099000
v 0.074709 -0.583134 0.099000
v 0.043134 -0.465291 0.099000
v -0.074709 -0.496866 0.099000
v -0.043134 -0.479709 0.085000
v 0.074709 -0.448134 0.085000
v 0.043134 -0.330291 0.085000
v -0.074709 -0.361866 0.085000
v -0.043134 -0.479709 0.099000
v 0.074709 -0.448134 0.099000
v 0.043134 -0.330291 0.099000
v -0.074709 -0.361866 0.099000
v -0.043134 -0.344709 0.085000
v 0.074709 -0.313134 0.085000
v 0.043134 -0.195291 0.085000
v -0.074709 -0.226866 0.085000
v -0.043134 -0.344709 0.099000
v 0.074709 -0.313134 0.099000
v 0.043134 -0.195291 0.099000
v -0.074709 -0.226866 0.099000
v -0.043134 -0.209709 0.085000
v 0.074709 -0.178134 0.085000
v 0.043134 -0.060291 0.085000
v -0.074709 -0.091866 0.085000
v -0.043134 -0.209709 0.099000
v 0.074709 -0.178134 0.099000
v 0.043134 -0.060291 0.099000
v -0.074709 -0.091866 0.099000
v -0.043134 -0.074709 0.085000
v 0.074709 -0.043134 0.085000
v 0.043134 0.074709 0.085000
v -0.074709 0.043134 0.085000
v -0.043134 -0.074709 0.099000
v 0.074709 -0.043134 0.099000
v 0.043134 0.074709 0.099000
v -0.074709 0.043134 0.099000
v -0.043134 0.060291 0.085000
v 0.074709 0.091866 0.085000
v 0.043134 0.209709 0.085000
v -0.074709 0.178134 0.085000
v -0.043134 0.060291 0.099000
v 0.074709 0.091866 0.099000
v 0.043134 0.209709 0.099000
v -0.074709 0.178134 0.099000
v -0.043134 0.195291 0.085000
v 0.074709 0.226866 0.085000
v 0.043134 0.344709 0.085000
v -0.074709 0.313134 0.085000
v -0.043134 0.195291 0.099000
v 0.074709 0.226866 0.099000
v 0.043134 0.344709 0.099000
v -0.074709 0.313134 0.099000
v -0.043134 0.330291 0.085000
v 0.074709 0.361866 0.085000
v 0.043134 0.479709 0.085000
v -0.074709 0.448134 0.085000
v -0.043134 0.330291 0.099000
v 0.074709 0.361866 0.099000
v 0.043134 0.479709 0.099000
v -0.074709 0.448134 0.099000
v -0.043134 0.465291 0.085000
v 0.074709 0.496866 0.085000
v 0.043134 0.614709 0.085000
v -0.074709 0.583134 0.085000
v -0.043134 0.465291 0.099000
v 0.074709 0.496866 0.099000
v 0.043134 0.614709 0.099000
v -0.074709 0.583134 0.099000
v -0.043134 0.600291 0.085000
v 0.074709 0.631866 0.085000
v 0.043134 0.749709 0.085000
v -0.074709 0.718134 0.085000
v -0.043134 0.600291 0.099000
v 0.074709 0.631866 0.099000
v 0.043134 0.749709 0.099000
v -0.074709 0.718134 0.099000
v 0.091866 -0.749709 0.085000
v 0.209709 -0.718134 0.085000
v 0.178134 -0.600291 0.085000
v 0.060291 -0.631866 0.085000
v 0.091866 -0.749709 0.099000
v 0.209709 -0.718134 0.099000
v 0.178134 -0.600291 0.099000
v 0.060291 -0.631866 0.099000
v 0.091866 -0.614709 0.085000
v 0.209709 -0.583134 0.085000
v 0.178134 -0.465291 0.085000
v 0.060291 -0.496866 0.085000
v 0.091866 -0.614709 0.099000
v 0.209709 -0.583134 0.099000
v 0.178134 -0.465291 0.099000
v 0.060291 -0.496866 0.099000
v 0.091866 -0.479709 0.085000
v 0.209709 -0.448134 0.085000
v 0.178134 -0.330291 0.085000
v 0.060291 -0.361866 0.085000
v 0.091866 -0.479709 0.099000
v 0.209709 -0.448134 0.099000
v 0.178134 -0.330291 0.099000
v 0.060291 -0.361866 0.099000
v 0.091866 -0.344709 0.085000
v 0.209709 -0.313134 0.085000
v 0.178134 -0.195291 0.085000
v 0.060291 -0.226866 0.085000
v 0.091866 -0.344709 0.099000
v 0.209709 -0.313134 0.099000
v 0.178134 -0.195291 0.099000
v 0.060291 -0.226866 0.099000
v 0.091866 -0.209709 0.085000
v 0.209709 -0.178134 0.085000
v 0.178134 -0.060291 0.085000
v 0.060291 -0.091866 0.085000
v 0.091866 -0.209709 0.099000
v 0.209709 -0.178134 0.099000
v 0.178134 -0.060291 0.099000
v 0.060291 -0.091866 0.099000
v 0.091866 -0.074709 0.085000
v 0.209709 -0.043134 0.085000
v 0.178134 0.074709 0.085000
v 0.060291 0.043134 0.085000
v 0.091866 -0.074709 0.099000
v 0.209709 -0.043134 0.099000
v 0.178134 0.074709 0.099000
v 0.060291 0.043134 0.099000
v 0.091866 0.060291 0.085000
v 0.209709 0.091866 0.085000
v 0.178134 0.209709 0.085000
v 0.060291 0.178134 0.085000
v 0.091866 0.060291 0.099000
v 0.209709 0.091866 0.099000
v 0.178134 0.209709 0.099000
v 0.060291 0.178134 0.099000
v 0.091866 0.195291 0.085000
v 0.209709 0.226866 0.085000
v 0.178134 0.344709 0.085000
v 0.060291 0.313134 0.085000
v 0.091866 0.195291 0.099000
v 0.209709 0.226866 0.099000
v 0.178134 0.344709 0.099000
v 0.060291 0.313134 0.099000
v 0.091866 0.330291 0.085000
v 0.209709 0.361866 0.085000
v 0.178134 0.479709 0.085000
v 0.060291 0.448134 0.085000
v 0.091866 0.330291 0.099000
v 0.209709 0.361866 0.099000
v 0.178134 0.479709 0.099000
v 0.060291 0.448134 0.099000
v 0.091866 0.465291 0.085000
v 0.209709 0.496866 0.085000
v 0.178134 0.614709 0.085000
v 0.060291 0.583134 0.085000
v 0.091866 0.465291 0.099000
v 0.209709 0.496866 0.099000
v 0.178134 0.614709 0.099000
v 0.060291 0.583134 0.099000
v 0.091866 0.600291 0.085000
v 0.209709 0.631866 0.085000
v 0.178134 0.749709 0.085000
v 0.060291 0.718134 0.085000
v 0.091866 0.600291 0.099000
v 0.209709 0.631866 0.099000
v 0.178134 0.749709 0.099000
v 0.060291 0.718134 0.099000
v 0.226866 -0.749709 0.085000
v 0.344709 -0.718134 0.085000
v 0.313134 -0.600291 0.085000
v 0.195291 -0.631866 0.085000
v 0.226866 -0.749709 0.099000
v 0.344709 -0.718134 0.099000
v 0.313134 -0.600291 0.099000
v 0.195291 -0.631866 0.099000
v 0.226866 -0.614709 0.085000
v 0.344709 -0.583134 0.085000
v 0.313134 -0.465291 0.085000
v 0.195291 -0.496866 0.085000
v 0.226866 -0.614709 0.099000
v 0.344709 -0.583134 0.099000
v 0.313134 -0.465291 0.099000
v 0.195291 -0.496866 0.099000
v 0.226866 -0.479709 0.085000
v 0.344709 -0.448134 0.085000
v 0.313134 -0.330291 0.085000
v 0.195291 -0.361866 0.085000
v 0.226866 -0.479709 0.099000
v 0.344709 -0.448134 0.099000
v 0.313134 -0.330291 0.099000
v 0.195291 -0.361866 0.099000
v 0.226866 -0.344709 0.085000
v 0.344709 -0.313134 0.085000
v 0.313134 -0.195291 0.085000
v 0.195291 -0.226866 0.085000
v 0.226866 -0.344709 0.099000
v 0.344709 -0.313134 0.099000
v 0.313134 -0.195291 0.099000
v 0.195291 -0.226866 0.099000
v 0.226866 -0.209709 0.085000
v 0.344709 -0.178134 0.085000
v 0.313134 -0.060291 0.085000
v 0.195291 -0.091866 0.085000
v 0.226866 -0.209709 0.099000
v 0.344709 -0.178134 0.099000
v 0.313134 -0.060291 0.099000
v 0.195291 -0.091866 0.099000
v 0.226866 -0.074709 0.085000
v 0.344709 -0.043134 0.085000
v 0.313134 0.074709 0.085000
v 0.195291 0.043134 0.085000
v 0.226866 -0.074709 0.099000
v 0.344709 -0.043134 0.099000
v 0.313134 0.074709 0.099000
v 0.195291 0.043134 0.099000
v 0.226866 0.060291 0.085000
v 0.344709 0.091866 0.085000
v 0.313134 0.209709 0.085000
v 0.195291 0.178134 0.085000
v 0.226866 0.060291 0.099000
v 0.344709 0.091866 0.099000
v 0.313134 0.209709 0.099000
v 0.195291 0.178134 0.099000
v 0.226866 0.195291 0.085000
v 0.344709 0.226866 0.085000
v 0.313134 0.344709 0.085000
v 0.195291 0.313134 0.085000
v 0.226866 0.195291 0.099000
v 0.344709 0.226866 0.099000
v 0.313134 0.344709 0.099000
v 0.195291 0.313134 0.099000
v 0.226866 0.330291 0.085000
v 0.344709 0.361866 0.085000
v 0.313134 0.479709 0.085000
v 0.195291 0.448134 0.085000
v 0.226866 0.330291 0.099000
v 0.344709 0.361866 0.099000
v 0.313134 0.479709 0.099000
v 0.195291 0.448134 0.099000
v 0.226866 0.465291 0.085000
v 0.344709 0.496866 0.085000
v 0.313134 0.614709 0.085000
v 0.195291 0.583134 0.085000
v 0.226866 0.465291 0.099000
v 0.344709 0.496866 0.099000
v 0.313134 0.614709 0.099000
v 0.195291 0.583134 0.099000
v 0.226866 0.600291 0.085000
v 0.344709 0.631866 0.085000
v 0.313134 0.749709 0.085000
v 0.195291 0.718134 0.085000
v 0.226866 0.600291 0.099000
v 0.344709 0.631866 0.099000
v 0.313134 0.749709 0.099000
v 0.195291 0.718134 0.099000
v 0.361866 -0.749709 0.085000
v 0.479709 -0.718134 0.085000
v 0.448134 -0.600291 0.085000
v 0.330291 -0.631866 0.085000
v 0.361866 -0.749709 0.099000
v 0.479709 -0.718134 0.099000
v 0.448134 -0.600291 0.099000
v 0.330291 -0.631866 0.099000
v 0.361866 -0.614709 0.085000
v 0.479709 -0.583134 0.085000
v 0.448134 -0.465291 0.085000
v 0.330291 -0.496866 0.085000
v 0.361866 -0.614709 0.099000
v 0.479709 -0.583134 0.099000
v 0.448134 -0.465291 0.099000
v 0.330291 -0.496866 0.099000
v 0.361866 -0.479709 0.085000
v 0.479709 -0.448134 0.085000
v 0.448134 -0.330291 0.085000
v 0.330291 -0.361866 0.085000
v 0.361866 -0.479709 0.099000
v 0.479709 -0.448134 0.099000
v 0.448134 -0.330291 0.099000
v 0.330291 -0.361866 0.099000
v 0.361866 -0.344709 0.085000
v 0.479709 -0.313134 0.085000
v 0.448134 -0.195291 0.085000
v 0.330291 -0.226866 0.085000
v 0.361866 -0.344709 0.099000
v 0.479709 -0.313134 0.099000
v 0.448134 -0.195291 0.099000
v 0.330291 -0.226866 0.099000
v 0.361866 -0.209709 0.085000
v 0.479709 -0.178134 0.085000
v 0.448134 -0.060291 0.085000
v 0.330291 -0.091866 0.085000
v 0.361866 -0.209709 0.099000
v 0.479709 -0.178134 0.099000
v 0.448134 -0.060291 0.099000
v 0.330291 -0.091866 0.099000
v 0.361866 -0.074709 0.085000
v 0.479709 -0.043134 0.085000
v 0.448134 0.074709 0.085000
v 0.330291 0.043134 0.085000
v 0.361866 -0.074709 0.099000
v 0.479709 -0.043134 0.099000
v 0.448134 0.074709 0.099000
v 0.330291 0.043134 0.099000
v 0.361866 0.060291 0.085000
v 0.479709 0.091866 0.085000
v 0.448134 0.209709 0.085000
v 0.330291 0.178134 0.085000
v 0.361866 0.060291 0.099000
v 0.479709 0.091866 0.099000
v 0.448134 0.209709 0.099000
v 0.330291 0.178134 0.099000
v 0.361866 0.195291 0.085000
v 0.479709 0.226866 0.085000
v 0.448134 0.344709 0.085000
v 0.330291 0.313134 0.085000
v 0.361866 0.195291 0.099000
v 0.479709 0.226866 0.099000
v 0.448134 0.344709 0.099000
v 0.330291 0.313134 0.099000
v 0.361866 0.330291 0.085000
v 0.479709 0.361866 0.085000
v 0.448134 0.479709 0.085000
v 0.330291 0.448134 0.085000
v 0.361866 0.330291 0.099000
v 0.479709 0.361866 0.099000
v 0.448134 0.479709 0.099000
v 0.330291 0.448134 0.099000
v 0.361866 0.465291 0.085000
v 0.479709 0.496866 0.085000
v 0.448134 0.614709 0.085000
v 0.330291 0.583134 0.085000
v 0.361866 0.465291 0.099000
v 0.479709 0.496866 0.099000
v 0.448134 0.614709 0.099000
v 0.330291 0.583134 0.099000
v 0.361866 0.600291 0.085000
v 0.479709 0.631866 0.085000
v 0.448134 0.749709 0.085000
v 0.330291 0.718134 0.085000
v 0.361866 0.600291 0.099000
v 0.479709 0.631866 0.099000
v 0.448134 0.749709 0.099000
v 0.330291 0.718134 0.099000
v 0.496866 -0.614709 0.085000
v 0.614709 -0.583134 0.085000
v 0.583134 -0.465291 0.085000
v 0.465291 -0.496866 0.085000
v 0.496866 -0.614709 0.099000
v 0.614709 -0.583134 0.099000
v 0.583134 -0.465291 0.099000
v 0.465291 -0.496866 0.099000
v 0.496866 -0.479709 0.085000
v 0.614709 -0.448134 0.085000
v 0.583134 -0.330291 0.085000
v 0.465291 -0.361866 0.085000
v 0.496866 -0.479709 0.099000
v 0.614709 -0.448134 0.099000
v 0.583134 -0.330291 0.099000
v 0.465291 -0.361866 0.099000
v 0.496866 -0.344709 0.085000
v 0.614709 -0.313134 0.085000
v 0.583134 -0.195291 0.085000
v 0.465291 -0.226866 0.085000
v 0.496866 -0.344709 0.099000
v 0.614709 -0.313134 0.099000
v 0.583134 -0.195291 0.099000
v 0.465291 -0.226866 0.099000
v 0.496866 -0.209709 0.085000
v 0.614709 -0.178134 0.085000
v 0.583134 -0.060291 0.085000
v 0.465291 -0.091866 0.085000
v 0.496866 -0.209709 0.099000
v 0.614709 -0.178134 0.099000
v 0.583134 -0.060291 0.099000
v 0.465291 -0.091866 0.099000
v 0.496866 -0.074709 0.085000
v 0.614709 -0.043134 0.085000
v 0.583134 0.074709 0.085000
v 0.465291 0.043134 0.085000
v 0.496866 -0.074709 0.099000
v 0.614709 -0.043134 0.099000
v 0.583134 0.074709 0.099000
v 0.465291 0.043134 0.099000
v 0.496866 0.060291 0.085000
v 0.614709 0.091866 0.085000
v 0.583134 0.209709 0.085000
v 0.465291 0.178134 0.085000
v 0.496866 0.060291 0.099000
v 0.614709 0.091866 0.099000
v 0.583134 0.209709 0.099000
v 0.465291 0.178134 0.099000
v 0.496866 0.195291 0.085000
v 0.614709 0.226866 0.085000
v 0.583134 0.344709 0.085000
v 0.465291 0.313134 0.085000
v 0.496866 0.195291 0.099000
v 0.614709 0.226866 0.099000
v 0.583134 0.344709 0.099000
v 0.465291 0.313134 0.099000
v 0.496866 0.330291 0.085000
v 0.614709 0.361866 0.085000
v 0.583134 0.479709 0.085000
v 0.465291 0.448134 0.085000
v 0.496866 0.330291 0.099000
v 0.614709 0.361866 0.099000
v 0.583134 0.479709 0.099000
v 0.465291 0.448134 0.099000
v 0.496866 0.465291 0.085000
v 0.614709 0.496866 0.085000
v 0.583134 0.614709 0.085000
v 0.465291 0.583134 0.085000
v 0.496866 0.465291 0.099000
v 0.614709 0.496866 0.099000
v 0.583134 0.614709 0.099000
v 0.465291 0.583134 0.099000
v 0.631866 -0.479709 0.085000
v 0.749709 -0.448134 0.085000
v 0.718134 -0.330291 0.085000
v 0.600291 -0.361866 0.085000
v 0.631866 -0.479709 0.099000
v 0.749709 -0.448134 0.099000
v 0.718134 -0.330291 0.099000
v 0.600291 -0.361866 0.099000
v 0.631866 -0.344709 0.085000
v 0.749709 -0.313134 0.085000
v 0.718134 -0.195291 0.085000
v 0.600291 -0.226866 0.085000
v 0.631866 -0.344709 0.099000
v 0.749709 -0.313134 0.099000
v 0.718134 -0.195291 0.099000
v 0.600291 -0.226866 0.099000
v 0.631866 -0.209709 0.085000
v 0.749709 -0.178134 0.085000
v 0.718134 -0.060291 0.085000
v 0.600291 -0.091866 0.085000
v 0.631866 -0.209709 0.099000
v 0.749709 -0.178134 0.099000
v 0.718134 -0.060291 0.099000
v 0.600291 -0.091866 0.099000
v 0.631866 -0.074709 0.085000
v 0.749709 -0.043134 0.085000
v 0.718134 0.074709 0.085000
v 0.600291 0.043134 0.085000
v 0.631866 -0.074709 0.099000
v 0.749709 -0.043134 0.099000
v 0.718134 0.074709 0.099000
v 0.600291 0.043134 0.099000
v 0.631866 0.060291 0.085000
v 0.749709 0.091866 0.085000
v 0.718134 0.209709 0.085000
v 0.600291 0.178134 0.085000
v 0.631866 0.060291 0.099000
v 0.749709 0.091866 0.099000
v 0.718134 0.209709 0.099000
v 0.600291 0.178134 0.099000
v 0.631866 0.195291 0.085000
v 0.749709 0.226866 0.085000
v 0.718134 0.344709 0.085000
v 0.600291 0.313134 0.085000
v 0.631866 0.195291 0.099000
v 0.749709 0.226866 0.099000
v 0.718134 0.344709 0.099000
v 0.600291 0.313134 0.099000
v 0.631866 0.330291 0.085000
v 0.749709 0.361866 0.085000
v 0.718134 0.479709 0.085000
v 0.600291 0.448134 0.085000
v 0.631866 0.330291 0.099000
v 0.749709 0.361866 0.099000
v 0.718134 0.479709 0.099000
v 0.600291 0.448134 0.099000
v 0.961591 0.138806 -0.015000
v 1.138003 0.174566 -0.015000
v 1.116150 0.282373 -0.015000
v 0.939738 0.246613 -0.015000
v 0.961591 0.138806 0.105000
v 1.138003 0.174566 0.105000
v 1.116150 0.282373 0.105000
v 0.939738 0.246613 0.105000
v 0.330805 0.913506 -0.015000
v 0.382413 1.085949 -0.015000
v 0.277032 1.117488 -0.015000
v 0.225423 0.945045 -0.015000
v 0.330805 0.913506 0.105000
v 0.382413 1.085949 0.105000
v 0.277032 1.117488 0.105000
v 0.225423 0.945045 0.105000
v -0.718621 0.653841 -0.015000
v -0.858404 0.767247 -0.015000
v -0.927708 0.681824 -0.015000
v -0.787925 0.568418 -0.015000
v -0.718621 0.653841 0.105000
v -0.858404 0.767247 0.105000
v -0.927708 0.681824 0.105000
v -0.787925 0.568418 0.105000
v -0.905188 -0.352930 -0.015000
v -1.068921 -0.427706 -0.015000
v -1.023225 -0.527766 -0.015000
v -0.859491 -0.452989 -0.015000
v -0.905188 -0.352930 0.105000
v -1.068921 -0.427706 0.105000
v -1.023225 -0.527766 0.105000
v -0.859491 -0.452989 0.105000
v -0.115371 -0.964684 -0.015000
v -0.126594 -1.144333 -0.015000
v -0.016808 -1.151192 -0.015000
v -0.005585 -0.971542 -0.015000
v -0.115371 -0.964684 0.105000
v -0.126594 -1.144333 0.105000
v -0.016808 -1.151192 0.105000
v -0.005585 -0.971542 0.105000
v 0.683947 -0.690030 -0.015000
v 0.817695 -0.810493 -0.015000
v 0.891312 -0.728758 -0.015000
v 0.757563 -0.608295 -0.015000
v 0.683947 -0.690030 0.105000
v 0.817695 -0.810493 0.105000
v 0.891312 -0.728758 0.105000
v 0.757563 -0.608295 0.105000
v 0.896082 0.605836 0.010000
v 0.991612 0.678459 0.010000
v 0.918989 0.773989 0.010000
v 0.823459 0.701366 0.010000
v 0.896082 0.605836 0.250000
v 0.991612 0.678459 0.250000
v 0.918989 0.773989 0.250000
v 0.823459 0.701366 0.250000
v -0.890957 -0.613348 0.010000
v -0.985873 -0.686771 0.010000
v -0.912450 -0.781688 0.010000
v -0.817534 -0.708265 0.010000
v -0.890957 -0.613348 0.250000
v -0.985873 -0.686771 0.250000
v -0.912450 -0.781688 0.250000
v -0.817534 -0.708265 0.250000
v 0.609301 0.830547 -0.032500
v 0.760539 1.042035 -0.032500
v 0.740203 1.056577 -0.032500
v 0.588966 0.845089 -0.032500
v 0.609301 0.830547 -0.007500
v 0.760539 1.042035 -0.007500
v 0.740203 1.056577 -0.007500
v 0.588966 0.845089 -0.007500
v -0.509201 0.895416 -0.032500
v -0.640461 1.119851 -0.032500
v -0.662042 1.107230 -0.032500
v -0.530782 0.882795 -0.032500
v -0.509201 0.895416 -0.007500
v -0.640461 1.119851 -0.007500
v -0.662042 1.107230 -0.007500
v -0.530782 0.882795 -0.007500
v -1.025306 -0.099014 -0.032500
v -1.283780 -0.127145 -0.032500
v -1.281075 -0.151998 -0.032500
v -1.022601 -0.123868 -0.032500
v -1.025306 -0.099014 -0.007500
v -1.283780 -0.127145 -0.007500
v -1.281075 -0.151998 -0.007500
v -1.022601 -0.123868 -0.007500
v -0.376832 -0.958673 -0.032500
v -0.469005 -1.201786 -0.032500
v -0.445629 -1.210649 -0.032500
v -0.353456 -0.967536 -0.032500
v -0.376832 -0.958673 -0.007500
v -0.469005 -1.201786 -0.007500
v -0.445629 -1.210649 -0.007500
v -0.353456 -0.967536 -0.007500
v 0.471529 -0.915815 -0.032500
v 0.593343 -1.145513 -0.032500
v 0.615430 -1.133800 -0.032500
v 0.493615 -0.904102 -0.032500
v 0.471529 -0.915815 -0.007500
v 0.593343 -1.145513 -0.007500
v 0.615430 -1.133800 -0.007500
v 0.493615 -0.904102 -0.007500
g body
usemtl body
f 1 2 50 49
f 97 2 1
f 98 49 50
f 2 3 51 50
f 97 3 2
f 98 50 51
f 3 4 52 51
f 97 4 3
f 98 51 52
f 4 5 53 52
f 97 5 4
f 98 52 53
f 5 6 54 53
f 97 6 5
f 98 53 54
f 6 7 55 54
f 97 7 6
f 98 54 55
f 7 8 56 55
f 97 8 7
f 98 55 56
f 8 9 57 56
f 97 9 8
f 98 56 57
f 9 10 58 57
f 97 10 9
f 98 57 58
f 10 11 59 58
f 97 11 10
f 98 58 59
f 11 12 60 59
f 97 12 11
f 98 59 60
f 12 13 61 60
f 97 13 12
f 98 60 61
f 13 14 62 61
f 97 14 13
f 98 61 62
f 14 15 63 62
f 97 15 14
f 98 62 63
f 15 16 64 63
f 97 16 15
f 98 63 64
f 16 17 65 64
f 97 17 16
f 98 64 65
f 17 18 66 65
f 97 18 17
f 98 65 66
f 18 19 67 66
f 97 19 18
f 98 66 67
f 19 20 68 67
f 97 20 19
f 98 67 68
f 20 21 69 68
f 97 21 20
f 98 68 69
f 21 22 70 69
f 97 22 21
f 98 69 70
f 22 23 71 70
f 97 23 22
f 98 70 71
f 23 24 72 71
f 97 24 23
f 98 71 72
f 24 25 73 72
f 97 25 24
f 98 72 73
f 25 26 74 73
f 97 26 25
f 98 73 74
f 26 27 75 74
f 97 27 26
f 98 74 75
f 27 28 76 75
f 97 28 27
f 98 75 76
f 28 29 77 76
f 97 29 28
f 98 76 77
f 29 30 78 77
f 97 30 29
f 98 77 78
f 30 31 79 78
f 97 31 30
f 98 78 79
f 31 32 80 79
f 97 32 31
f 98 79 80
f 32 33 81 80
f 97 33 32
f 98 80 81
f 33 34 82 81
f 97 34 33
f 98 81 82
f 34 35 83 82
f 97 35 34
f 98 82 83
f 35 36 84 83
f 97 36 35
f 98 83 84
f 36 37 85 84
f 97 37 36
f 98 84 85
f 37 38 86 85
f 97 38 37
f 98 85 86
f 38 39 87 86
f 97 39 38
f 98 86 87
f 39 40 88 87
f 97 40 39
f 98 87 88
f 40 41 89 88
f 97 41 40
f 98 88 89
f 41 42 90 89
f 97 42 41
f 98 89 90
f 42 43 91 90
f 97 43 42
f 98 90 91
f 43 44 92 91
f 97 44 43
f 98 91 92
f 44 45 93 92
f 97 45 44
f 98 92 93
f 45 46 94 93
f 97 46 45
f 98 93 94
f 46 47 95 94
f 97 47 46
f 98 94 95
f 47 48 96 95
f 97 48 47
f 98 95 96
f 48 1 49 96
f 97 1 48
f 98 96 49
g rim
usemtl rim
f 99 109 110 100
f 100 110 111 101
f 101 111 112 102
f 102 112 113 103
f 103 113 114 104
f 104 114 115 105
f 105 115 116 106
f 106 116 117 107
f 107 117 118 108
f 108 118 109 99
f 109 119 120 110
f 110 120 121 111
f 111 121 122 112
f 112 122 123 113
f 113 123 124 114
f 114 124 125 115
f 115 125 126 116
f 116 126 127 117
f 117 127 128 118
f 118 128 119 109
f 119 129 130 120
f 120 130 131 121
f 121 131 132 122
f 122 132 133 123
f 123 133 134 124
f 124 134 135 125
f 125 135 136 126
f 126 136 137 127
f 127 137 138 128
f 128 138 129 119
f 129 139 140 130
f 130 140 141 131
f 131 141 142 132
f 132 142 143 133
f 133 143 144 134
f 134 144 145 135
f 135 145 146 136
f 136 146 147 137
f 137 147 148 138
f 138 148 139 129
f 139 149 150 140
f 140 150 151 141
f 141 151 152 142
f 142 152 153 143
f 143 153 154 144
f 144 154 155 145
f 145 155 156 146
f 146 156 157 147
f 147 157 158 148
f 148 158 149 139
f 149 159 160 150
f 150 160 161 151
f 151 161 162 152
f 152 162 163 153
f 153 163 164 154
f 154 164 165 155
f 155 165 166 156
f 156 166 167 157
f 157 167 168 158
f 158 168 159 149
f 159 169 170 160
f 160 170 171 161
f 161 171 172 162
f 162 172 173 163
f 163 173 174 164
f 164 174 175 165
f 165 175 176 166
f 166 176 177 167
f 167 177 178 168
f 168 178 169 159
f 169 179 180 170
f 170 180 181 171
f 171 181 182 172
f 172 182 183 173
f 173 183 184 174
f 174 184 185 175
f 175 185 186 176
f 176 186 187 177
f 177 187 188 178
f 178 188 179 169
f 179 189 190 180
f 180 190 191 181
f 181 191 192 182
f 182 192 193 183
f 183 193 194 184
f 184 194 195 185
f 185 195 196 186
f 186 196 197 187
f 187 197 198 188
f 188 198 189 179
f 189 199 200 190
f 190 200 201 191
f 191 201 202 192
f 192 202 203 193
f 193 203 204 194
f 194 204 205 195
f 195 205 206 196
f 196 206 207 197
f 197 207 208 198
f 198 208 199 189
f 199 209 210 200
f 200 210 211 201
f 201 211 212 202
f 202 212 213 203
f 203 213 214 204
f 204 214 215 205
f 205 215 216 206
f 206 216 217 207
f 207 217 218 208
f 208 218 209 199
f 209 219 220 210
f 210 220 221 211
f 211 221 222 212
f 212 222 223 213
f 213 223 224 214
f 214 224 225 215
f 215 225 226 216
f 216 226 227 217
f 217 227 228 218
f 218 228 219 209
f 219 229 230 220
f 220 230 231 221
f 221 231 232 222
f 222 232 233 223
f 223 233 234 224
f 224 234 235 225
f 225 235 236 226
f 226 236 237 227
f 227 237 238 228
f 228 238 229 219
f 229 239 240 230
f 230 240 241 231
f 231 241 242 232
f 232 242 243 233
f 233 243 244 234
f 234 244 245 235
f 235 245 246 236
f 236 246 247 237
f 237 247 248 238
f 238 248 239 229
f 239 249 250 240
f 240 250 251 241
f 241 251 252 242
f 242 252 253 243
f 243 253 254 244
f 244 254 255 245
f 245 255 256 246
f 246 256 257 247
f 247 257 258 248
f 248 258 249 239
f 249 259 260 250
f 250 260 261 251
f 251 261 262 252
f 252 262 263 253
f 253 263 264 254
f 254 264 265 255
f 255 265 266 256
f 256 266 267 257
f 257 267 268 258
f 258 268 259 249
f 259 269 270 260
f 260 270 271 261
f 261 271 272 262
f 262 272 273 263
f 263 273 274 264
f 264 274 275 265
f 265 275 276 266
f 266 276 277 267
f 267 277 278 268
f 268 278 269 259
f 269 279 280 270
f 270 280 281 271
f 271 281 282 272
f 272 282 283 273
f 273 283 284 274
f 274 284 285 275
f 275 285 286 276
f 276 286 287 277
f 277 287 288 278
f 278 288 279 269
f 279 289 290 280
f 280 290 291 281
f 281 291 292 282
f 282 292 293 283
f 283 293 294 284
f 284 294 295 285
f 285 295 296 286
f 286 296 297 287
f 287 297 298 288
f 288 298 289 279
f 289 299 300 290
f 290 300 301 291
f 291 301 302 292
f 292 302 303 293
f 293 303 304 294
f 294 304 305 295
f 295 305 306 296
f 296 306 307 297
f 297 307 308 298
f 298 308 299 289
f 299 309 310 300
f 300 310 311 301
f 301 311 312 302
f 302 312 313 303
f 303 313 314 304
f 304 314 315 305
f 305 315 316 306
f 306 316 317 307
f 307 317 318 308
f 308 318 309 299
f 309 319 320 310
f 310 320 321 311
f 311 321 322 312
f 312 322 323 313
f 313 323 324 314
f 314 324 325 315
f 315 325 326 316
f 316 326 327 317
f 317 327 328 318
f 318 328 319 309
f 319 329 330 320
f 320 330 331 321
f 321 331 332 322
f 322 332 333 323
f 323 333 334 324
f 324 334 335 325
f 325 335 336 326
f 326 336 337 327
f 327 337 338 328
f 328 338 329 319
f 329 339 340 330
f 330 340 341 331
f 331 341 342 332
f 332 342 343 333
f 333 343 344 334
f 334 344 345 335
f 335 345 346 336
f 336 346 347 337
f 337 347 348 338
f 338 348 339 329
f 339 349 350 340
f 340 350 351 341
f 341 351 352 342
f 342 352 353 343
f 343 353 354 344
f 344 354 355 345
f 345 355 356 346
f 346 356 357 347
f 347 357 358 348
f 348 358 349 339
f 349 359 360 350
f 350 360 361 351
f 351 361 362 352
f 352 362 363 353
f 353 363 364 354
f 354 364 365 355
f 355 365 366 356
f 356 366 367 357
f 357 367 368 358
f 358 368 359 349
f 359 369 370 360
f 360 370 371 361
f 361 371 372 362
f 362 372 373 363
f 363 373 374 364
f 364 374 375 365
f 365 375 376 366
f 366 376 377 367
f 367 377 378 368
f 368 378 369 359
f 369 379 380 370
f 370 380 381 371
f 371 381 382 372
f 372 382 383 373
f 373 383 384 374
f 374 384 385 375
f 375 385 386 376
f 376 386 387 377
f 377 387 388 378
f 378 388 379 369
f 379 389 390 380
f 380 390 391 381
f 381 391 392 382
f 382 392 393 383
f 383 393 394 384
f 384 394 395 385
f 385 395 396 386
f 386 396 397 387
f 387 397 398 388
f 388 398 389 379
f 389 399 400 390
f 390 400 401 391
f 391 401 402 392
f 392 402 403 393
f 393 403 404 394
f 394 404 405 395
f 395 405 406 396
f 396 406 407 397
f 397 407 408 398
f 398 408 399 389
f 399 409 410 400
f 400 410 411 401
f 401 411 412 402
f 402 412 413 403
f 403 413 414 404
f 404 414 415 405
f 405 415 416 406
f 406 416 417 407
f 407 417 418 408
f 408 418 409 399
f 409 419 420 410
f 410 420 421 411
f 411 421 422 412
f 412 422 423 413
f 413 423 424 414
f 414 424 425 415
f 415 425 426 416
f 416 426 427 417
f 417 427 428 418
f 418 428 419 409
f 419 429 430 420
f 420 430 431 421
f 421 431 432 422
f 422 432 433 423
f 423 433 434 424
f 424 434 435 425
f 425 435 436 426
f 426 436 437 427
f 427 437 438 428
f 428 438 429 419
f 429 439 440 430
f 430 440 441 431
f 431 441 442 432
f 432 442 443 433
f 433 443 444 434
f 434 444 445 435
f 435 445 446 436
f 436 446 447 437
f 437 447 448 438
f 438 448 439 429
f 439 449 450 440
f 440 450 451 441
f 441 451 452 442
f 442 452 453 443
f 443 453 454 444
f 444 454 455 445
f 445 455 456 446
f 446 456 457 447
f 447 457 458 448
f 448 458 449 439
f 449 459 460 450
f 450 460 461 451
f 451 461 462 452
f 452 462 463 453
f 453 463 464 454
f 454 464 465 455
f 455 465 466 456
f 456 466 467 457
f 457 467 468 458
f 458 468 459 449
f 459 469 470 460
f 460 470 471 461
f 461 471 472 462
f 462 472 473 463
f 463 473 474 464
f 464 474 475 465
f 465 475 476 466
f 466 476 477 467
f 467 477 478 468
f 468 478 469 459
f 469 479 480 470
f 470 480 481 471
f 471 481 482 472
f 472 482 483 473
f 473 483 484 474
f 474 484 485 475
f 475 485 486 476
f 476 486 487 477
f 477 487 488 478
f 478 488 479 469
f 479 489 490 480
f 480 490 491 481
f 481 491 492 482
f 482 492 493 483
f 483 493 494 484
f 484 494 495 485
f 485 495 496 486
f 486 496 497 487
f 487 497 498 488
f 488 498 489 479
f 489 499 500 490
f 490 500 501 491
f 491 501 502 492
f 492 502 503 493
f 493 503 504 494
f 494 504 505 495
f 495 505 506 496
f 496 506 507 497
f 497 507 508 498
f 498 508 499 489
f 499 509 510 500
f 500 510 511 501
f 501 511 512 502
f 502 512 513 503
f 503 513 514 504
f 504 514 515 505
f 505 515 516 506
f 506 516 517 507
f 507 517 518 508
f 508 518 509 499
f 509 519 520 510
f 510 520 521 511
f 511 521 522 512
f 512 522 523 513
f 513 523 524 514
f 514 524 525 515
f 515 525 526 516
f 516 526 527 517
f 517 527 528 518
f 518 528 519 509
f 519 529 530 520
f 520 530 531 521
f 521 531 532 522
f 522 532 533 523
f 523 533 534 524
f 524 534 535 525
f 525 535 536 526
f 526 536 537 527
f 527 537 538 528
f 528 538 529 519
f 529 539 540 530
f 530 540 541 531
f 531 541 542 532
f 532 542 543 533
f 533 543 544 534
f 534 544 545 535
f 535 545 546 536
f 536 546 547 537
f 537 547 548 538
f 538 548 539 529
f 539 549 550 540
f 540 550 551 541
f 541 551 552 542
f 542 552 553 543
f 543 553 554 544
f 544 554 555 545
f 545 555 556 546
f 546 556 557 547
f 547 557 558 548
f 548 558 549 539
f 549 559 560 550
f 550 560 561 551
f 551 561 562 552
f 552 562 563 553
f 553 563 564 554
f 554 564 565 555
f 555 565 566 556
f 556 566 567 557
f 557 567 568 558
f 558 568 559 549
f 559 569 570 560
f 560 570 571 561
f 561 571 572 562
f 562 572 573 563
f 563 573 574 564
f 564 574 575 565
f 565 575 576 566
f 566 576 577 567
f 567 577 578 568
f 568 578 569 559
f 569 579 580 570
f 570 580 581 571
f 571 581 582 572
f 572 582 583 573
f 573 583 584 574
f 574 584 585 575
f 575 585 586 576
f 576 586 587 577
f 577 587 588 578
f 578 588 579 569
f 579 589 590 580
f 580 590 591 581
f 581 591 592 582
f 582 592 593 583
f 583 593 594 584
f 584 594 595 585
f 585 595 596 586
f 586 596 597 587
f 587 597 598 588
f 588 598 589 579
f 589 599 600 590
f 590 600 601 591
f 591 601 602 592
f 592 602 603 593
f 593 603 604 594
f 594 604 605 595
f 595 605 606 596
f 596 606 607 597
f 597 607 608 598
f 598 608 599 589
f 599 609 610 600
f 600 610 611 601
f 601 611 612 602
f 602 612 613 603
f 603 613 614 604
f 604 614 615 605
f 605 615 616 606
f 606 616 617 607
f 607 617 618 608
f 608 618 609 599
f 609 619 620 610
f 610 620 621 611
f 611 621 622 612
f 612 622 623 613
f 613 623 624 614
f 614 624 625 615
f 615 625 626 616
f 616 626 627 617
f 617 627 628 618
f 618 628 619 609
f 619 629 630 620
f 620 630 631 621
f 621 631 632 622
f 622 632 633 623
f 623 633 634 624
f 624 634 635 625
f 625 635 636 626
f 626 636 637 627
f 627 637 638 628
f 628 638 629 619
f 629 639 640 630
f 630 640 641 631
f 631 641 642 632
f 632 642 643 633
f 633 643 644 634
f 634 644 645 635
f 635 645 646 636
f 636 646 647 637
f 637 647 648 638
f 638 648 639 629
f 639 649 650 640
f 640 650 651 641
f 641 651 652 642
f 642 652 653 643
f 643 653 654 644
f 644 654 655 645
f 645 655 656 646
f 646 656 657 647
f 647 657 658 648
f 648 658 649 639
f 649 659 660 650
f 650 660 661 651
f 651 661 662 652
f 652 662 663 653
f 653 663 664 654
f 654 664 665 655
f 655 665 666 656
f 656 666 667 657
f 657 667 668 658
f 658 668 659 649
f 659 669 670 660
f 660 670 671 661
f 661 671 672 662
f 662 672 673 663
f 663 673 674 664
f 664 674 675 665
f 665 675 676 666
f 666 676 677 667
f 667 677 678 668
f 668 678 669 659
f 669 679 680 670
f 670 680 681 671
f 671 681 682 672
f 672 682 683 673
f 673 683 684 674
f 674 684 685 675
f 675 685 686 676
f 676 686 687 677
f 677 687 688 678
f 678 688 679 669
f 679 689 690 680
f 680 690 691 681
f 681 691 692 682
f 682 692 693 683
f 683 693 694 684
f 684 694 695 685
f 685 695 696 686
f 686 696 697 687
f 687 697 698 688
f 688 698 689 679
f 689 699 700 690
f 690 700 701 691
f 691 701 702 692
f 692 702 703 693
f 693 703 704 694
f 694 704 705 695
f 695 705 706 696
f 696 706 707 697
f 697 707 708 698
f 698 708 699 689
f 699 709 710 700
f 700 710 711 701
f 701 711 712 702
f 702 712 713 703
f 703 713 714 704
f 704 714 715 705
f 705 715 716 706
f 706 716 717 707
f 707 717 718 708
f 708 718 709 699
f 709 719 720 710
f 710 720 721 711
f 711 721 722 712
f 712 722 723 713
f 713 723 724 714
f 714 724 725 715
f 715 725 726 716
f 716 726 727 717
f 717 727 728 718
f 718 728 719 709
f 719 729 730 720
f 720 730 731 721
f 721 731 732 722
f 722 732 733 723
f 723 733 734 724
f 724 734 735 725
f 725 735 736 726
f 726 736 737 727
f 727 737 738 728
f 728 738 729 719
f 729 99 100 730
f 730 100 101 731
f 731 101 102 732
f 732 102 103 733
f 733 103 104 734
f 734 104 105 735
f 735 105 106 736
f 736 106 107 737
f 737 107 108 738
f 738 108 99 729
g solar_cells
usemtl solar_cells
f 739 740 741 742
f 743 746 745 744
f 739 743 744 740
f 740 744 745 741
f 741 745 746 742
f 742 746 743 739
f 747 748 749 750
f 751 754 753 752
f 747 751 752 748
f 748 752 753 749
f 749 753 754 750
f 750 754 751 747
f 755 756 757 758
f 759 762 761 760
f 755 759 760 756
f 756 760 761 757
f 757 761 762 758
f 758 762 759 755
f 763 764 765 766
f 767 770 769 768
f 763 767 768 764
f 764 768 769 765
f 765 769 770 766
f 766 770 767 763
f 771 772 773 774
f 775 778 777 776
f 771 775 776 772
f 772 776 777 773
f 773 777 778 774
f 774 778 775 771
f 779 780 781 782
f 783 786 785 784
f 779 783 784 780
f 780 784 785 781
f 781 785 786 782
f 782 786 783 779
f 787 788 789 790
f 791 794 793 792
f 787 791 792 788
f 788 792 793 789
f 789 793 794 790
f 790 794 791 787
f 795 796 797 798
f 799 802 801 800
f 795 799 800 796
f 796 800 801 797
f 797 801 802 798
f 798 802 799 795
f 803 804 805 806
f 807 810 809 808
f 803 807 808 804
f 804 808 809 805
f 805 809 810 806
f 806 810 807 803
f 811 812 813 814
f 815 818 817 816
f 811 815 816 812
f 812 816 817 813
f 813 817 818 814
f 814 818 815 811
f 819 820 821 822
f 823 826 825 824
f 819 823 824 820
f 820 824 825 821
f 821 825 826 822
f 822 826 823 819
f 827 828 829 830
f 831 834 833 832
f 827 831 832 828
f 828 832 833 829
f 829 833 834 830
f 830 834 831 827
f 835 836 837 838
f 839 842 841 840
f 835 839 840 836
f 836 840 841 837
f 837 841 842 838
f 838 842 839 835
f 843 844 845 846
f 847 850 849 848
f 843 847 848 844
f 844 848 849 845
f 845 849 850 846
f 846 850 847 843
f 851 852 853 854
f 855 858 857 856
f 851 855 856 852
f 852 856 857 853
f 853 857 858 854
f 854 858 855 851
f 859 860 861 862
f 863 866 865 864
f 859 863 864 860
f 860 864 865 861
f 861 865 866 862
f 862 866 863 859
f 867 868 869 870
f 871 874 873 872
f 867 871 872 868
f 868 872 873 869
f 869 873 874 870
f 870 874 871 867
f 875 876 877 878
f 879 882 881 880
f 875 879 880 876
f 876 880 881 877
f 877 881 882 878
f 878 882 879 875
f 883 884 885 886
f 887 890 889 888
f 883 887 888 884
f 884 888 889 885
f 885 889 890 886
f 886 890 887 883
f 891 892 893 894
f 895 898 897 896
f 891 895 896 892
f 892 896 897 893
f 893 897 898 894
f 894 898 895 891
f 899 900 901 902
f 903 906 905 904
f 899 903 904 900
f 900 904 905 901
f 901 905 906 902
f 902 906 903 899
f 907 908 909 910
f 911 914 913 912
f 907 911 912 908
f 908 912 913 909
f 909 913 914 910
f 910 914 911 907
f 915 916 917 918
f 919 922 921 920
f 915 919 920 916
f 916 920 921 917
f 917 921 922 918
f 918 922 919 915
f 923 924 925 926
f 927 930 929 928
f 923 927 928 924
f 924 928 929 925
f 925 929 930 926
f 926 930 927 923
f 931 932 933 934
f 935 938 937 936
f 931 935 936 932
f 932 936 937 933
f 933 937 938 934
f 934 938 935 931
f 939 940 941 942
f 943 946 945 944
f 939 943 944 940
f 940 944 945 941
f 941 945 946 942
f 942 946 943 939
f 947 948 949 950
f 951 954 953 952
f 947 951 952 948
f 948 952 953 949
f 949 953 954 950
f 950 954 951 947
f 955 956 957 958
f 959 962 961 960
f 955 959 960 956
f 956 960 961 957
f 957 961 962 958
f 958 962 959 955
f 963 964 965 966
f 967 970 969 968
f 963 967 968 964
f 964 968 969 965
f 965 969 970 966
f 966 970 967 963
f 971 972 973 974
f 975 978 977 976
f 971 975 976 972
f 972 976 977 973
f 973 977 978 974
f 974 978 975 971
f 979 980 981 982
f 983 986 985 984
f 979 983 984 980
f 980 984 985 981
f 981 985 986 982
f 982 986 983 979
f 987 988 989 990
f 991 994 993 992
f 987 991 992 988
f 988 992 993 989
f 989 993 994 990
f 990 994 991 987
f 995 996 997 998
f 999 1002 1001 1000
f 995 999 1000 996
f 996 1000 1001 997
f 997 1001 1002 998
f 998 1002 999 995
f 1003 1004 1005 1006
f 1007 1010 1009 1008
f 1003 1007 1008 1004
f 1004 1008 1009 1005
f 1005 1009 1010 1006
f 1006 1010 1007 1003
f 1011 1012 1013 1014
f 1015 1018 1017 1016
f 1011 1015 1016 1012
f 1012 1016 1017 1013
f 1013 1017 1018 1014
f 1014 1018 1015 1011
f 1019 1020 1021 1022
f 1023 1026 1025 1024
f 1019 1023 1024 1020
f 1020 1024 1025 1021
f 1021 1025 1026 1022
f 1022 1026 1023 1019
f 1027 1028 1029 1030
f 1031 1034 1033 1032
f 1027 1031 1032 1028
f 1028 1032 1033 1029
f 1029 1033 1034 1030
f 1030 1034 1031 1027
f 1035 1036 1037 1038
f 1039 1042 1041 1040
f 1035 1039 1040 1036
f 1036 1040 1041 1037
f 1037 1041 1042 1038
f 1038 1042 1039 1035
f 1043 1044 1045 1046
f 1047 1050 1049 1048
f 1043 1047 1048 1044
f 1044 1048 1049 1045
f 1045 1049 1050 1046
f 1046 1050 1047 1043
f 1051 1052 1053 1054
f 1055 1058 1057 1056
f 1051 1055 1056 1052
f 1052 1056 1057 1053
f 1053 1057 1058 1054
f 1054 1058 1055 1051
f 1059 1060 1061 1062
f 1063 1066 1065 1064
f 1059 1063 1064 1060
f 1060 1064 1065 1061
f 1061 1065 1066 1062
f 1062 1066 1063 1059
f 1067 1068 1069 1070
f 1071 1074 1073 1072
f 1067 1071 1072 1068
f 1068 1072 1073 1069
f 1069 1073 1074 1070
f 1070 1074 1071 1067
f 1075 1076 1077 1078
f 1079 1082 1081 1080
f 1075 1079 1080 1076
f 1076 1080 1081 1077
f 1077 1081 1082 1078
f 1078 1082 1079 1075
f 1083 1084 1085 1086
f 1087 1090 1089 1088
f 1083 1087 1088 1084
f 1084 1088 1089 1085
f 1085 1089 1090 1086
f 1086 1090 1087 1083
f 1091 1092 1093 1094
f 1095 1098 1097 1096
f 1091 1095 1096 1092
f 1092 1096 1097 1093
f 1093 1097 1098 1094
f 1094 1098 1095 1091
f 1099 1100 1101 1102
f 1103 1106 1105 1104
f 1099 1103 1104 1100
f 1100 1104 1105 1101
f 1101 1105 1106 1102
f 1102 1106 1103 1099
f 1107 1108 1109 1110
f 1111 1114 1113 1112
f 1107 1111 1112 1108
f 1108 1112 1113 1109
f 1109 1113 1114 1110
f 1110 1114 1111 1107
f 1115 1116 1117 1118
f 1119 1122 1121 1120
f 1115 1119 1120 1116
f 1116 1120 1121 1117
f 1117 1121 1122 1118
f 1118 1122 1119 1115
f 1123 1124 1125 1126
f 1127 1130 1129 1128
f 1123 1127 1128 1124
f 1124 1128 1129 1125
f 1125 1129 1130 1126
f 1126 1130 1127 1123
f 1131 1132 1133 1134
f 1135 1138 1137 1136
f 1131 1135 1136 1132
f 1132 1136 1137 1133
f 1133 1137 1138 1134
f 1134 1138 1135 1131
f 1139 1140 1141 1142
f 1143 1146 1145 1144
f 1139 1143 1144 1140
f 1140 1144 1145 1141
f 1141 1145 1146 1142
f 1142 1146 1143 1139
f 1147 1148 1149 1150
f 1151 1154 1153 1152
f 1147 1151 1152 1148
f 1148 1152 1153 1149
f 1149 1153 1154 1150
f 1150 1154 1151 1147
f 1155 1156 1157 1158
f 1159 1162 1161 1160
f 1155 1159 1160 1156
f 1156 1160 1161 1157
f 1157 1161 1162 1158
f 1158 1162 1159 1155
f 1163 1164 1165 1166
f 1167 1170 1169 1168
f 1163 1167 1168 1164
f 1164 1168 1169 1165
f 1165 1169 1170 1166
f 1166 1170 1167 1163
f 1171 1172 1173 1174
f 1175 1178 1177 1176
f 1171 1175 1176 1172
f 1172 1176 1177 1173
f 1173 1177 1178 1174
f 1174 1178 1175 1171
f 1179 1180 1181 1182
f 1183 1186 1185 1184
f 1179 1183 1184 1180
f 1180 1184 1185 1181
f 1181 1185 1186 1182
f 1182 1186 1183 1179
f 1187 1188 1189 1190
f 1191 1194 1193 1192
f 1187 1191 1192 1188
f 1188 1192 1193 1189
f 1189 1193 1194 1190
f 1190 1194 1191 1187
f 1195 1196 1197 1198
f 1199 1202 1201 1200
f 1195 1199 1200 1196
f 1196 1200 1201 1197
f 1197 1201 1202 1198
f 1198 1202 1199 1195
f 1203 1204 1205 1206
f 1207 1210 1209 1208
f 1203 1207 1208 1204
f 1204 1208 1209 1205
f 1205 1209 1210 1206
f 1206 1210 1207 1203
f 1211 1212 1213 1214
f 1215 1218 1217 1216
f 1211 1215 1216 1212
f 1212 1216 1217 1213
f 1213 1217 1218 1214
f 1214 1218 1215 1211
f 1219 1220 1221 1222
f 1223 1226 1225 1224
f 1219 1223 1224 1220
f 1220 1224 1225 1221
f 1221 1225 1226 1222
f 1222 1226 1223 1219
f 1227 1228 1229 1230
f 1231 1234 1233 1232
f 1227 1231 1232 1228
f 1228 1232 1233 1229
f 1229 1233 1234 1230
f 1230 1234 1231 1227
f 1235 1236 1237 1238
f 1239 1242 1241 1240
f 1235 1239 1240 1236
f 1236 1240 1241 1237
f 1237 1241 1242 1238
f 1238 1242 1239 1235
f 1243 1244 1245 1246
f 1247 1250 1249 1248
f 1243 1247 1248 1244
f 1244 1248 1249 1245
f 1245 1249 1250 1246
f 1246 1250 1247 1243
f 1251 1252 1253 1254
f 1255 1258 1257 1256
f 1251 1255 1256 1252
f 1252 1256 1257 1253
f 1253 1257 1258 1254
f 1254 1258 1255 1251
f 1259 1260 1261 1262
f 1263 1266 1265 1264
f 1259 1263 1264 1260
f 1260 1264 1265 1261
f 1261 1265 1266 1262
f 1262 1266 1263 1259
f 1267 1268 1269 1270
f 1271 1274 1273 1272
f 1267 1271 1272 1268
f 1268 1272 1273 1269
f 1269 1273 1274 1270
f 1270 1274 1271 1267
f 1275 1276 1277 1278
f 1279 1282 1281 1280
f 1275 1279 1280 1276
f 1276 1280 1281 1277
f 1277 1281 1282 1278
f 1278 1282 1279 1275
f 1283 1284 1285 1286
f 1287 1290 1289 1288
f 1283 1287 1288 1284
f 1284 1288 1289 1285
f 1285 1289 1290 1286
f 1286 1290 1287 1283
f 1291 1292 1293 1294
f 1295 1298 1297 1296
f 1291 1295 1296 1292
f 1292 1296 1297 1293
f 1293 1297 1298 1294
f 1294 1298 1295 1291
f 1299 1300 1301 1302
f 1303 1306 1305 1304
f 1299 1303 1304 1300
f 1300 1304 1305 1301
f 1301 1305 1306 1302
f 1302 1306 1303 1299
f 1307 1308 1309 1310
f 1311 1314 1313 1312
f 1307 1311 1312 1308
f 1308 1312 1313 1309
f 1309 1313 1314 1310
f 1310 1314 1311 1307
f 1315 1316 1317 1318
f 1319 1322 1321 1320
f 1315 1319 1320 1316
f 1316 1320 1321 1317
f 1317 1321 1322 1318
f 1318 1322 1319 1315
f 1323 1324 1325 1326
f 1327 1330 1329 1328
f 1323 1327 1328 1324
f 1324 1328 1329 1325
f 1325 1329 1330 1326
f 1326 1330 1327 1323
f 1331 1332 1333 1334
f 1335 1338 1337 1336
f 1331 1335 1336 1332
f 1332 1336 1337 1333
f 1333 1337 1338 1334
f 1334 1338 1335 1331
f 1339 1340 1341 1342
f 1343 1346 1345 1344
f 1339 1343 1344 1340
f 1340 1344 1345 1341
f 1341 1345 1346 1342
f 1342 1346 1343 1339
f 1347 1348 1349 1350
f 1351 1354 1353 1352
f 1347 1351 1352 1348
f 1348 1352 1353 1349
f 1349 1353 1354 1350
f 1350 1354 1351 1347
f 1355 1356 1357 1358
f 1359 1362 1361 1360
f 1355 1359 1360 1356
f 1356 1360 1361 1357
f 1357 1361 1362 1358
f 1358 1362 1359 1355
f 1363 1364 1365 1366
f 1367 1370 1369 1368
f 1363 1367 1368 1364
f 1364 1368 1369 1365
f 1365 1369 1370 1366
f 1366 1370 1367 1363
f 1371 1372 1373 1374
f 1375 1378 1377 1376
f 1371 1375 1376 1372
f 1372 1376 1377 1373
f 1373 1377 1378 1374
f 1374 1378 1375 1371
f 1379 1380 1381 1382
f 1383 1386 1385 1384
f 1379 1383 1384 1380
f 1380 1384 1385 1381
f 1381 1385 1386 1382
f 1382 1386 1383 1379
f 1387 1388 1389 1390
f 1391 1394 1393 1392
f 1387 1391 1392 1388
f 1388 1392 1393 1389
f 1389 1393 1394 1390
f 1390 1394 1391 1387
f 1395 1396 1397 1398
f 1399 1402 1401 1400
f 1395 1399 1400 1396
f 1396 1400 1401 1397
f 1397 1401 1402 1398
f 1398 1402 1399 1395
f 1403 1404 1405 1406
f 1407 1410 1409 1408
f 1403 1407 1408 1404
f 1404 1408 1409 1405
f 1405 1409 1410 1406
f 1406 1410 1407 1403
f 1411 1412 1413 1414
f 1415 1418 1417 1416
f 1411 1415 1416 1412
f 1412 1416 1417 1413
f 1413 1417 1418 1414
f 1414 1418 1415 1411
f 1419 1420 1421 1422
f 1423 1426 1425 1424
f 1419 1423 1424 1420
f 1420 1424 1425 1421
f 1421 1425 1426 1422
f 1422 1426 1423 1419
f 1427 1428 1429 1430
f 1431 1434 1433 1432
f 1427 1431 1432 1428
f 1428 1432 1433 1429
f 1429 1433 1434 1430
f 1430 1434 1431 1427
f 1435 1436 1437 1438
f 1439 1442 1441 1440
f 1435 1439 1440 1436
f 1436 1440 1441 1437
f 1437 1441 1442 1438
f 1438 1442 1439 1435
f 1443 1444 1445 1446
f 1447 1450 1449 1448
f 1443 1447 1448 1444
f 1444 1448 1449 1445
f 1445 1449 1450 1446
f 1446 1450 1447 1443
f 1451 1452 1453 1454
f 1455 1458 1457 1456
f 1451 1455 1456 1452
f 1452 1456 1457 1453
f 1453 1457 1458 1454
f 1454 1458 1455 1451
f 1459 1460 1461 1462
f 1463 1466 1465 1464
f 1459 1463 1464 1460
f 1460 1464 1465 1461
f 1461 1465 1466 1462
f 1462 1466 1463 1459
f 1467 1468 1469 1470
f 1471 1474 1473 1472
f 1467 1471 1472 1468
f 1468 1472 1473 1469
f 1469 1473 1474 1470
f 1470 1474 1471 1467
f 1475 1476 1477 1478
f 1479 1482 1481 1480
f 1475 1479 1480 1476
f 1476 1480 1481 1477
f 1477 1481 1482 1478
f 1478 1482 1479 1475
f 1483 1484 1485 1486
f 1487 1490 1489 1488
f 1483 1487 1488 1484
f 1484 1488 1489 1485
f 1485 1489 1490 1486
f 1486 1490 1487 1483
f 1491 1492 1493 1494
f 1495 1498 1497 1496
f 1491 1495 1496 1492
f 1492 1496 1497 1493
f 1493 1497 1498 1494
f 1494 1498 1495 1491
f 1499 1500 1501 1502
f 1503 1506 1505 1504
f 1499 1503 1504 1500
f 1500 1504 1505 1501
f 1501 1505 1506 1502
f 1502 1506 1503 1499
f 1507 1508 1509 1510
f 1511 1514 1513 1512
f 1507 1511 1512 1508
f 1508 1512 1513 1509
f 1509 1513 1514 1510
f 1510 1514 1511 1507
f 1515 1516 1517 1518
f 1519 1522 1521 1520
f 1515 1519 1520 1516
f 1516 1520 1521 1517
f 1517 1521 1522 1518
f 1518 1522 1519 1515
f 1523 1524 1525 1526
f 1527 1530 1529 1528
f 1523 1527 1528 1524
f 1524 1528 1529 1525
f 1525 1529 1530 1526
f 1526 1530 1527 1523
f 1531 1532 1533 1534
f 1535 1538 1537 1536
f 1531 1535 1536 1532
f 1532 1536 1537 1533
f 1533 1537 1538 1534
f 1534 1538 1535 1531
f 1539 1540 1541 1542
f 1543 1546 1545 1544
f 1539 1543 1544 1540
f 1540 1544 1545 1541
f 1541 1545 1546 1542
f 1542 1546 1543 1539
f 1547 1548 1549 1550
f 1551 1554 1553 1552
f 1547 1551 1552 1548
f 1548 1552 1553 1549
f 1549 1553 1554 1550
f 1550 1554 1551 1547
f 1555 1556 1557 1558
f 1559 1562 1561 1560
f 1555 1559 1560 1556
f 1556 1560 1561 1557
f 1557 1561 1562 1558
f 1558 1562 1559 1555
f 1563 1564 1565 1566
f 1567 1570 1569 1568
f 1563 1567 1568 1564
f 1564 1568 1569 1565
f 1565 1569 1570 1566
f 1566 1570 1567 1563
f 1571 1572 1573 1574
f 1575 1578 1577 1576
f 1571 1575 1576 1572
f 1572 1576 1577 1573
f 1573 1577 1578 1574
f 1574 1578 1575 1571
f 1579 1580 1581 1582
f 1583 1586 1585 1584
f 1579 1583 1584 1580
f 1580 1584 1585 1581
f 1581 1585 1586 1582
f 1582 1586 1583 1579
f 1587 1588 1589 1590
f 1591 1594 1593 1592
f 1587 1591 1592 1588
f 1588 1592 1593 1589
f 1589 1593 1594 1590
f 1590 1594 1591 1587
f 1595 1596 1597 1598
f 1599 1602 1601 1600
f 1595 1599 1600 1596
f 1596 1600 1601 1597
f 1597 1601 1602 1598
f 1598 1602 1599 1595
f 1603 1604 1605 1606
f 1607 1610 1609 1608
f 1603 1607 1608 1604
f 1604 1608 1609 1605
f 1605 1609 1610 1606
f 1606 1610 1607 1603
g perimeter_modules
usemtl perimeter_modules
f 1611 1612 1613 1614
f 1615 1618 1617 1616
f 1611 1615 1616 1612
f 1612 1616 1617 1613
f 1613 1617 1618 1614
f 1614 1618 1615 1611
f 1619 1620 1621 1622
f 1623 1626 1625 1624
f 1619 1623 1624 1620
f 1620 1624 1625 1621
f 1621 1625 1626 1622
f 1622 1626 1623 1619
f 1627 1628 1629 1630
f 1631 1634 1633 1632
f 1627 1631 1632 1628
f 1628 1632 1633 1629
f 1629 1633 1634 1630
f 1630 1634 1631 1627
f 1635 1636 1637 1638
f 1639 1642 1641 1640
f 1635 1639 1640 1636
f 1636 1640 1641 1637
f 1637 1641 1642 1638
f 1638 1642 1639 1635
f 1643 1644 1645 1646
f 1647 1650 1649 1648
f 1643 1647 1648 1644
f 1644 1648 1649 1645
f 1645 1649 1650 1646
f 1646 1650 1647 1643
f 1651 1652 1653 1654
f 1655 1658 1657 1656
f 1651 1655 1656 1652
f 1652 1656 1657 1653
f 1653 1657 1658 1654
f 1654 1658 1655 1651
g star_trackers
usemtl star_trackers
f 1659 1660 1661 1662
f 1663 1666 1665 1664
f 1659 1663 1664 1660
f 1660 1664 1665 1661
f 1661 1665 1666 1662
f 1662 1666 1663 1659
f 1667 1668 1669 1670
f 1671 1674 1673 1672
f 1667 1671 1672 1668
f 1668 1672 1673 1669
f 1669 1673 1674 1670
f 1670 1674 1671 1667
g harness
usemtl harness
f 1675 1676 1677 1678
f 1679 1682 1681 1680
f 1675 1679 1680 1676
f 1676 1680 1681 1677
f 1677 1681 1682 1678
f 1678 1682 1679 1675
f 1683 1684 1685 1686
f 1687 1690 1689 1688
f 1683 1687 1688 1684
f 1684 1688 1689 1685
f 1685 1689 1690 1686
f 1686 1690 1687 1683
f 1691 1692 1693 1694
f 1695 1698 1697 1696
f 1691 1695 1696 1692
f 1692 1696 1697 1693
f 1693 1697 1698 1694
f 1694 1698 1695 1691
f 1699 1700 1701 1702
f 1703 1706 1705 1704
f 1699 1703 1704 1700
f 1700 1704 1705 1701
f 1701 1705 1706 1702
f 1702 1706 1703 1699
f 1707 1708 1709 1710
f 1711 1714 1713 1712
f 1707 1711 1712 1708
f 1708 1712 1713 1709
f 1709 1713 1714 1710
f 1710 1714 1711 1707
